<svg width="80" height="80" viewBox="0 0 80 80" fill="none" xmlns="http://www.w3.org/2000/svg">
<path d="M33.2814 79.9876C32.8845 79.7079 32.4017 79.747 31.9595 79.6407C29.1562 78.9649 26.6468 77.4002 24.8061 75.1805C22.9654 72.9607 21.8923 70.2051 21.747 67.3251C21.7189 66.7501 21.522 66.6626 21.0142 66.6641C16.6173 66.6829 12.2199 66.6829 7.822 66.6641C4.697 66.6548 2.32825 64.7313 1.82356 61.7204C1.47512 59.6438 2.13606 57.847 3.722 56.461C6.75637 53.8048 9.047 50.6407 10.4126 46.8298C11.2914 44.3774 11.7371 41.791 11.7298 39.186C11.7298 36.1923 11.7298 33.199 11.7298 30.2063C11.7501 18.8501 19.4001 9.43915 30.5282 7.11884C33.6204 6.47509 36.7251 6.5454 39.8236 7.17821C40.3486 7.28446 40.2923 7.49071 40.1361 7.85946C38.8224 10.9345 38.2343 14.2706 38.4173 17.6095C38.8986 25.9985 42.8017 32.3626 49.9329 36.7563C52.3486 38.2438 55.0001 39.1501 57.7907 39.6251C58.2861 39.7079 58.4032 39.8798 58.4298 40.3563C58.7782 46.5126 61.2001 51.7079 65.7611 55.8688C66.9611 56.9626 67.997 58.1251 68.2611 59.7923C68.8454 63.5298 66.1892 66.6376 62.347 66.6673C58.1048 66.6938 53.8642 66.6673 49.622 66.6673C48.4126 66.6673 48.4126 66.6673 48.3032 67.8876C48.0596 70.5606 47.0135 73.0976 45.3022 75.1655C43.5909 77.2334 41.2945 78.7357 38.7142 79.4751C38.0517 79.661 37.3798 79.8126 36.7111 79.9798L33.2814 79.9876Z" fill="#FBE303"/>
<path d="M63.5828 0.0109863C64.4265 0.210986 65.2781 0.387549 66.1156 0.615674C73.5578 2.64692 78.7624 9.72817 78.3656 17.2704C77.9437 25.2735 72.2999 31.75 64.5749 33.0938C55.2781 34.7125 46.4499 28.2422 45.1859 18.8875C43.9999 10.1079 49.9593 1.90317 58.6781 0.293799C58.9609 0.242236 59.3031 0.293799 59.5218 0.0156738L63.5828 0.0109863Z" fill="#454950"/>
</svg>
