<svg width="60" height="60" viewBox="0 0 60 60" fill="none" xmlns="http://www.w3.org/2000/svg">
<g clip-path="url(#clip0_45_9)">
<path d="M52.2062 15.9375H50.8323L51.5774 13.7208C51.6675 13.7009 51.7574 13.6796 51.847 13.6556C53.4402 13.2287 54.7718 12.207 55.5966 10.7786C56.4213 9.35016 56.6403 7.68609 56.2134 6.09293L54.6153 0.128203L48.6507 1.72641C47.0575 2.15332 45.7259 3.17508 44.9011 4.60348C44.0763 6.03188 43.8573 7.69605 44.2842 9.2891C44.3082 9.37875 44.3347 9.46734 44.3625 9.55535L38.7319 15.9375H34.511V13.8493L38.6245 0H21.1515V2.40258C18.9682 0.85711 16.1803 0 13.7852 0H7.07695L11.3078 14.2439V15.9375H7.67496C5.41336 15.9375 3.57339 17.7775 3.57339 20.0391V48.1641C3.57339 50.4257 5.41336 52.2656 7.67496 52.2656H24.6671V56.4844H21.1515V60H38.7296V56.4844H35.214V52.2656H52.2062C54.4678 52.2656 56.3078 50.4257 56.3078 48.1641V20.0391C56.3078 17.7775 54.4679 15.9375 52.2062 15.9375ZM47.9457 6.36129C48.3009 5.74605 48.8743 5.30613 49.5606 5.12227L52.1293 4.43391L52.8177 7.00266C53.0016 7.68879 52.9072 8.40551 52.552 9.02062C52.1968 9.63574 51.6234 10.0758 50.9373 10.2596C50.2514 10.4435 49.535 10.3492 48.9199 9.99434L48.9185 9.99352C48.3037 9.63832 47.8639 9.06504 47.6801 8.37914C47.4962 7.69312 47.5907 6.97641 47.9457 6.36129ZM46.3772 12.5859L47.1611 13.0385C47.1612 13.0386 47.1613 13.0386 47.1614 13.0387C47.1615 13.0387 47.1616 13.0389 47.1616 13.0389L47.9455 13.4914L45.3172 21.3109L40.9194 18.7718L46.3772 12.5859ZM39.8382 22.207L42.8829 23.9648L33.3094 40.5469H29.2498L39.8382 22.207ZM35.6302 19.4531L35.4405 19.6679L36.7937 20.4492L28.1829 35.3637V23.5547H29.2376C31.7425 23.5547 33.8436 21.7985 34.3781 19.4531H35.6302ZM16.5812 20.0391C15.6119 20.0391 14.8234 19.2505 14.8234 18.2812V15.3516H30.9953V18.2812C30.9953 19.2505 30.2067 20.0391 29.2375 20.0391H16.5812ZM24.6671 23.5547V40.5469H21.1515V23.5547H24.6671ZM13.7852 3.51562C16.4849 3.51562 20.1668 5.20043 21.1335 7.6173L21.6015 8.78906H24.6671V3.51562H33.9129L31.4415 11.8359H14.2601L11.7887 3.51562H13.7852ZM7.08902 20.0391C7.08902 19.716 7.35187 19.4531 7.67496 19.4531H11.4407C11.9752 21.7985 14.0763 23.5547 16.5812 23.5547H17.6359V40.5469H7.08902V20.0391ZM31.6984 56.4844H28.1828V52.2656H31.6984V56.4844ZM52.7921 48.1641C52.7921 48.4871 52.5293 48.75 52.2062 48.75H7.67496C7.35187 48.75 7.08902 48.4871 7.08902 48.1641V44.0625H52.7921V48.1641ZM52.7921 40.5469H37.3687L45.9274 25.7227L47.2806 26.5039L49.6506 19.4531H52.2062C52.5293 19.4531 52.7921 19.716 52.7921 20.0391V40.5469Z" fill="#BA2629"/>
</g>
<defs>
<clipPath id="clip0_45_9">
<rect width="60" height="60" fill="white"/>
</clipPath>
</defs>
</svg>
