<svg width="50" height="50" viewBox="0 0 50 50" fill="none" xmlns="http://www.w3.org/2000/svg">
<g clip-path="url(#clip0_8_377)">
<path d="M43.9827 18.2401C44.6956 17.128 44.9084 15.7585 44.5665 14.4826C44.2246 13.2068 43.3556 12.1271 42.1822 11.5206C41.2301 11.0283 40.647 10.0185 40.6969 8.94788C40.7583 7.62841 40.2579 6.33599 39.3238 5.40188C38.3898 4.46797 37.0969 3.96805 35.7779 4.02879C34.7075 4.0786 33.6974 3.49548 33.2052 2.5435C32.5986 1.37002 31.5189 0.501053 30.2431 0.159246C28.9673 -0.182756 27.5977 0.0301407 26.4858 0.743052C25.5834 1.32139 24.4173 1.32158 23.5151 0.743052C22.4031 0.0302384 21.0335 -0.182658 19.7578 0.159246C18.4819 0.501053 17.4023 1.37002 16.7956 2.5435C16.3034 3.49557 15.2923 4.07909 14.2229 4.02879C12.9035 3.96824 11.6111 4.46787 10.677 5.40188C9.743 6.33589 9.2426 7.62841 9.30393 8.94788C9.35373 10.0185 8.77071 11.0283 7.81863 11.5206C6.64525 12.1271 5.77619 13.2068 5.43428 14.4826C5.09247 15.7584 5.30518 17.128 6.01809 18.2401C6.59662 19.1423 6.59662 20.3084 6.01809 21.2106C5.30518 22.3227 5.09238 23.6922 5.43428 24.9681C5.77619 26.2439 6.64516 27.3236 7.81853 27.9301C8.77071 28.4224 9.35373 29.4322 9.30383 30.5028C9.2425 31.8223 9.7429 33.1147 10.6769 34.0488C11.5884 34.9603 12.8413 35.4569 14.1275 35.4238L9.26418 43.8472C9.06671 44.1893 9.09474 44.6167 9.33518 44.9301C9.57561 45.2434 9.98119 45.3808 10.3627 45.2788L15.8229 43.8158L17.2861 49.2758C17.3883 49.6574 17.7103 49.9398 18.1019 49.9913C18.1447 49.9969 18.1874 49.9997 18.2297 49.9997C18.5752 49.9997 18.8992 49.8161 19.0751 49.5114L25.0004 39.2485L30.9257 49.5114C31.1016 49.8161 31.4256 49.9997 31.7711 49.9997C31.8135 49.9997 31.8561 49.9969 31.8988 49.9913C32.2904 49.9398 32.6124 49.6574 32.7147 49.2758L34.1777 43.8157L39.6378 45.2787C40.0193 45.381 40.4249 45.2434 40.6654 44.93C40.9058 44.6166 40.9339 44.1892 40.7364 43.8471L35.8732 35.4237C37.1595 35.4574 38.4123 34.9601 39.3237 34.0487C40.2578 33.1147 40.7582 31.8222 40.6968 30.5027C40.647 29.4321 41.2301 28.4223 42.1821 27.93C43.3555 27.3235 44.2246 26.2438 44.5665 24.968C44.9083 23.6922 44.6956 22.3226 43.9827 21.2105C43.4041 20.3084 43.4041 19.1424 43.9827 18.2401ZM18.5625 46.4929L17.4569 42.3669C17.3898 42.1166 17.2262 41.9034 17.0019 41.7739C16.7777 41.6444 16.5113 41.6093 16.2609 41.6764L12.1348 42.782L16.0474 36.005C16.3535 36.2445 16.611 36.5499 16.7956 36.9071C17.4022 38.0806 18.4819 38.9495 19.7577 39.2914C20.1571 39.3984 20.5656 39.451 20.9724 39.451C21.6182 39.451 22.2597 39.3177 22.8543 39.0592L18.5625 46.4929ZM33.74 41.6764C33.4896 41.6092 33.2232 41.6444 32.999 41.7739C32.7746 41.9034 32.611 42.1167 32.544 42.3669L31.4384 46.4929L27.1468 39.0597C28.1161 39.481 29.2103 39.5681 30.2431 39.2913C31.519 38.9494 32.5987 38.0805 33.2053 36.907C33.3899 36.55 33.6476 36.245 33.9541 36.0058L37.8662 42.7819L33.74 41.6764ZM42.3384 22.2649C42.7615 22.9249 42.8827 23.7053 42.6798 24.4626C42.4769 25.2198 41.9816 25.8351 41.2852 26.1951C39.6575 27.0366 38.6606 28.7631 38.7458 30.5935C38.7822 31.3767 38.4971 32.1132 37.9427 32.6675C37.3883 33.2219 36.6509 33.5078 35.8688 33.4707C34.0386 33.3877 32.3117 34.3824 31.4702 36.0101C31.1101 36.7066 30.4949 37.2018 29.7376 37.4047C28.9805 37.6075 28.2 37.4863 27.54 37.0632C26.7933 36.5844 25.9409 36.3382 25.0851 36.3229C25.0727 36.3218 25.0604 36.321 25.048 36.3205C25.0327 36.3197 25.0174 36.3195 25.0019 36.3194C24.9849 36.3194 24.9678 36.3197 24.9507 36.3206C24.9392 36.3211 24.9279 36.3219 24.9166 36.3229C24.0606 36.3381 23.2079 36.5843 22.461 37.0633C21.8011 37.4862 21.0208 37.6076 20.2634 37.4047C19.5062 37.2018 18.8909 36.7066 18.5309 36.0102C17.7227 34.4469 16.0985 33.4656 14.3497 33.4656C14.2774 33.4656 14.2049 33.4674 14.1323 33.4707C13.3494 33.5079 12.6126 33.2218 12.0584 32.6675C11.504 32.1131 11.2188 31.3766 11.2553 30.5935C11.3404 28.7631 10.3436 27.0366 8.71582 26.195C8.01941 25.835 7.52419 25.2198 7.32125 24.4626C7.11831 23.7053 7.23961 22.9249 7.66267 22.2649C8.65176 20.7222 8.65176 18.7285 7.66267 17.1858C7.23951 16.5258 7.11831 15.7453 7.32125 14.9881C7.52419 14.2309 8.01941 13.6156 8.71582 13.2556C10.3436 12.4141 11.3404 10.6876 11.2553 8.85716C11.2188 8.07403 11.504 7.33748 12.0584 6.78317C12.6127 6.22876 13.3503 5.9433 14.1323 5.98002C15.9631 6.0642 17.6893 5.06837 18.5309 3.44059C18.8909 2.74409 19.5062 2.24886 20.2634 2.04602C21.0205 1.84318 21.8012 1.96438 22.4611 2.38753C24.0038 3.37653 25.9973 3.37653 27.54 2.38753C27.54 2.38753 27.54 2.38753 27.5401 2.38744C28.1999 1.96448 28.9804 1.84308 29.7376 2.04602C30.4949 2.24886 31.1101 2.74409 31.4702 3.4405C32.3117 5.06847 34.0388 6.06518 35.8688 5.98002C36.6519 5.9433 37.3884 6.22886 37.9427 6.78317C38.4971 7.33758 38.7822 8.07413 38.7458 8.85716C38.6606 10.6876 39.6575 12.4141 41.2852 13.2557C41.9816 13.6157 42.4769 14.2309 42.6798 14.9881C42.8827 15.7453 42.7615 16.5258 42.3384 17.1858C41.3493 18.7285 41.3493 20.7222 42.3384 22.2649Z" fill="black"/>
<path d="M16.3964 25.659C16.3964 26.6608 17.2115 27.4759 18.2133 27.4759H21.1039C21.6483 27.4759 22.1363 27.234 22.4696 26.8533C23.3963 27.2621 24.3993 27.4759 25.4242 27.4759H30.432C32.1813 27.4759 33.6045 26.0527 33.6045 24.3034V20.1013C33.6045 18.352 32.1813 16.9288 30.432 16.9288H29.1751L29.6709 15.4754C30.1328 14.1217 29.4148 12.6228 28.0706 12.1342C26.8788 11.7008 25.5425 12.1772 24.8932 13.267C24.205 14.4222 23.2518 15.4197 22.1304 16.162C21.8381 15.961 21.4847 15.8428 21.104 15.8428H18.2134C17.2115 15.8428 16.3965 16.6579 16.3965 17.6597V25.659H16.3964ZM26.5711 14.2664C26.7411 13.9811 27.0911 13.8566 27.4033 13.9698C27.7552 14.0977 27.9432 14.4902 27.8223 14.8447L27.1055 16.9461C26.6526 17.0308 26.3095 17.4277 26.3095 17.9053C26.3095 18.4446 26.7467 18.8819 27.2861 18.8819H27.8032C27.8055 18.8819 27.8079 18.8822 27.8102 18.8822C27.8127 18.8822 27.8151 18.8819 27.8175 18.8819H30.432C31.1044 18.8819 31.6514 19.429 31.6514 20.1012V24.3033C31.6514 24.9757 31.1043 25.5226 30.432 25.5226H25.4242C24.5467 25.5226 23.6909 25.3093 22.9207 24.9033V17.9767L23.04 17.9009C24.4781 16.9869 25.6991 15.7301 26.5711 14.2664ZM18.3496 17.7958H20.9675V25.474V25.4744V25.5226H18.3496V17.7958Z" fill="black"/>
<path d="M25.0005 5.27148C22.757 5.27148 20.6063 5.77169 18.6085 6.75844C18.1249 6.99722 17.9264 7.58278 18.1652 8.06649C18.404 8.5499 18.9895 8.74864 19.4733 8.50967C21.1999 7.6571 23.0595 7.22476 25.0005 7.22476C31.8933 7.22476 37.5008 12.8324 37.5008 19.7251C37.5008 26.6178 31.8933 32.2255 25.0005 32.2255C18.1077 32.2255 12.5001 26.6178 12.5001 19.7251C12.5001 17.7843 12.9324 15.9246 13.7851 14.1979C14.0239 13.7143 13.8255 13.1286 13.3418 12.8898C12.858 12.6513 12.2726 12.8494 12.0338 13.333C11.0471 15.331 10.5469 17.4815 10.5469 19.725C10.5469 27.6947 17.0308 34.1786 25.0005 34.1786C32.9701 34.1786 39.454 27.6947 39.454 19.725C39.454 11.7554 32.9701 5.27148 25.0005 5.27148Z" fill="black"/>
<path d="M15.4709 11.1724C15.7277 11.1724 15.9797 11.0679 16.1614 10.8863C16.343 10.7046 16.4475 10.4527 16.4475 10.1958C16.4475 9.93899 16.343 9.68703 16.1614 9.50538C15.9797 9.32383 15.7277 9.21924 15.4709 9.21924C15.2141 9.21924 14.9621 9.32373 14.7805 9.50538C14.5988 9.68703 14.4943 9.93899 14.4943 10.1958C14.4943 10.4527 14.5988 10.7046 14.7805 10.8863C14.9621 11.0679 15.2141 11.1724 15.4709 11.1724Z" fill="black"/>
</g>
<defs>
<clipPath id="clip0_8_377">
<rect width="50" height="50" fill="white" transform="translate(0.000427246 -0.000488281)"/>
</clipPath>
</defs>
</svg>
