<svg width="120" height="120" viewBox="0 0 120 120" fill="none" xmlns="http://www.w3.org/2000/svg">
<rect width="120" height="120" rx="60" fill="white"/>
<g clip-path="url(#clip0_63_30)">
<path d="M76.3361 66.0503C71.8877 66.0503 68.2689 69.6692 68.2689 74.1175C68.2689 78.5659 71.8877 82.1848 76.3361 82.1848C80.7852 82.1848 84.4034 78.5659 84.4034 74.1175C84.4034 69.6692 80.7845 66.0503 76.3361 66.0503ZM76.3361 78.1512C74.1116 78.1512 72.3025 76.342 72.3025 74.1175C72.3025 71.893 74.1116 70.0839 76.3361 70.0839C78.5606 70.0839 80.3697 71.893 80.3697 74.1175C80.3697 76.3422 78.5606 78.1512 76.3361 78.1512Z" fill="black"/>
<path d="M48.7731 66.0503C44.3247 66.0503 40.7059 69.6692 40.7059 74.1175C40.7059 78.5659 44.3247 82.1848 48.7731 82.1848C53.2215 82.1848 56.8404 78.5659 56.8404 74.1175C56.8404 69.6692 53.2215 66.0503 48.7731 66.0503ZM48.7731 78.1512C46.5486 78.1512 44.7395 76.342 44.7395 74.1175C44.7395 71.893 46.5486 70.0839 48.7731 70.0839C50.997 70.0839 52.8067 71.893 52.8067 74.1175C52.8067 76.3422 50.9976 78.1512 48.7731 78.1512Z" fill="black"/>
<path d="M81.7688 42.9593C81.4259 42.2783 80.7288 41.8486 79.9664 41.8486H69.3445V45.8823H78.7226L84.2144 56.8053L87.8191 54.9928L81.7688 42.9593Z" fill="black"/>
<path d="M70.2858 72.168H55.0253V76.2016H70.2858V72.168Z" fill="black"/>
<path d="M42.7226 72.168H35.7311C34.6171 72.168 33.7144 73.0708 33.7144 74.1847C33.7144 75.2987 34.6172 76.2015 35.7311 76.2015H42.7227C43.8367 76.2015 44.7395 75.2986 44.7395 74.1847C44.7395 73.0707 43.8366 72.168 42.7226 72.168Z" fill="black"/>
<path d="M91.5765 59.8384L87.6095 54.7292C87.2284 54.2371 86.6401 53.9493 86.0169 53.9493H71.3614V39.8317C71.3614 38.7177 70.4585 37.8149 69.3446 37.8149H35.7311C34.6171 37.8149 33.7144 38.7178 33.7144 39.8317C33.7144 40.9456 34.6172 41.8484 35.7311 41.8484H67.3277V55.9661C67.3277 57.0801 68.2306 57.9828 69.3445 57.9828H85.0292L87.9664 61.7663V72.1677H82.3865C81.2725 72.1677 80.3697 73.0706 80.3697 74.1844C80.3697 75.2984 81.2726 76.2012 82.3865 76.2012H89.9831C91.0971 76.2012 91.9999 75.2983 92 74.1844V61.0754C92 60.6277 91.8507 60.1921 91.5765 59.8384Z" fill="black"/>
<path d="M42.5883 61.9497H33.3109C32.1969 61.9497 31.2941 62.8526 31.2941 63.9665C31.2941 65.0805 32.197 65.9832 33.3109 65.9832H42.5881C43.7021 65.9832 44.6049 65.0803 44.6049 63.9665C44.605 62.8526 43.7021 61.9497 42.5883 61.9497Z" fill="black"/>
<path d="M47.2269 54.0166H30.0168C28.9029 54.0166 28 54.9195 28 56.0335C28 57.1475 28.9029 58.0502 30.0168 58.0502H47.2269C48.3409 58.0502 49.2436 57.1474 49.2436 56.0335C49.2436 54.9196 48.3409 54.0166 47.2269 54.0166Z" fill="black"/>
<path d="M50.521 46.084H33.3109C32.1969 46.084 31.2941 46.9869 31.2941 48.1007C31.2941 49.2147 32.197 50.1175 33.3109 50.1175H50.521C51.635 50.1175 52.5378 49.2146 52.5378 48.1007C52.5379 46.9869 51.635 46.084 50.521 46.084Z" fill="black"/>
</g>
<defs>
<clipPath id="clip0_63_30">
<rect width="64" height="64" fill="white" transform="translate(28 28)"/>
</clipPath>
</defs>
</svg>
