<svg width="120" height="120" viewBox="0 0 120 120" fill="none" xmlns="http://www.w3.org/2000/svg">
<rect width="120" height="120" rx="60" fill="white"/>
<g clip-path="url(#clip0_63_34)">
<path d="M79.5561 42.5608C82.9065 42.5608 85.6322 39.8351 85.6322 36.4847C85.6322 33.1344 82.9065 30.4087 79.5561 30.4087C76.2058 30.4087 73.4801 33.1344 73.4801 36.4847C73.4801 39.8351 76.2058 42.5608 79.5561 42.5608ZM79.5561 32.2224C81.9063 32.2224 83.8184 34.1345 83.8184 36.4847C83.8184 38.8349 81.9063 40.747 79.5561 40.747C77.2058 40.747 75.2939 38.8349 75.2939 36.4847C75.2939 34.1345 77.2058 32.2224 79.5561 32.2224ZM46.3032 54.3814H40.1889C39.688 54.3814 39.282 54.7874 39.282 55.2883V61.4026C39.282 61.9035 39.688 62.3095 40.1889 62.3095H46.3032C46.8041 62.3095 47.2101 61.9035 47.2101 61.4026V55.2883C47.2101 54.7874 46.8041 54.3814 46.3032 54.3814ZM45.3963 60.4957H41.0958V56.1951H45.3963V60.4957ZM46.3032 64.4477H40.1889C39.688 64.4477 39.282 64.8537 39.282 65.3545V71.4689C39.282 71.9698 39.688 72.3758 40.1889 72.3758H46.3032C46.8041 72.3758 47.2101 71.9698 47.2101 71.4689V65.3545C47.2101 64.8538 46.8041 64.4477 46.3032 64.4477ZM45.3963 70.562H41.0958V66.2614H45.3963V70.562ZM96.7344 77.2123L84.4708 64.9487L93.2914 56.128C94.2243 55.1951 94.7381 53.9505 94.7381 52.6234C94.7381 51.2964 94.2243 50.0518 93.2914 49.1189C91.3589 47.1864 88.2146 47.1865 86.2822 49.119L79.5701 55.8311V47.9693H80.6139C81.4971 47.9693 82.2156 47.2508 82.2156 46.3676C82.2156 45.7688 82.5469 45.2742 83.1015 45.0444C83.6564 44.8145 84.2404 44.9301 84.6638 45.3536C84.9663 45.6561 85.3686 45.8227 85.7964 45.8227C86.2243 45.8227 86.6266 45.6561 86.9289 45.3536L88.425 43.8576C89.0494 43.2332 89.0494 42.2171 88.425 41.5925C88.0015 41.169 87.886 40.5851 88.1158 40.0302C88.3455 39.4754 88.8403 39.1442 89.4391 39.1442C90.3222 39.1442 91.0408 38.4256 91.0408 37.5425V35.427C91.0408 34.5438 90.3222 33.8253 89.4391 33.8253C88.8403 33.8253 88.3456 33.494 88.1158 32.9393C87.886 32.3844 88.0015 31.8003 88.425 31.3768C89.0494 30.7524 89.0494 29.7363 88.425 29.1116L86.9291 27.6158C86.6267 27.3133 86.2244 27.1466 85.7964 27.1466C85.3686 27.1466 84.9663 27.3132 84.6638 27.6157C84.2404 28.0392 83.6562 28.1548 83.1015 27.925C82.5467 27.6951 82.2155 27.2005 82.2155 26.6017C82.2156 25.7185 81.497 25 80.6139 25H78.4983C77.6151 25 76.8966 25.7185 76.8966 26.6017C76.8966 27.2005 76.5653 27.6951 76.0106 27.925C75.4555 28.1545 74.8716 28.0391 74.4483 27.6157C73.8237 26.9913 72.8076 26.9913 72.1831 27.6157L70.687 29.1117C70.3068 29.4921 70.1596 30.0174 70.2425 30.5114H43.1223C42.8818 30.5114 42.6511 30.6069 42.481 30.777L33.2656 39.9924C33.0955 40.1623 33 40.3931 33 40.6337V88.0933C33 88.5941 33.406 89.0001 33.9069 89.0001H78.6632C79.1641 89.0001 79.5701 88.5941 79.5701 88.0933V74.0237L89.7465 84.2001C89.9166 84.3701 90.1472 84.4657 90.3878 84.4657C90.6284 84.4657 90.859 84.3701 91.0291 84.2001L96.7346 78.4947C97.0885 78.1406 97.0885 77.5665 96.7344 77.2123ZM87.5647 50.4014C88.79 49.1761 90.7836 49.1761 92.0088 50.4013C92.5992 50.9917 92.9242 51.7808 92.9242 52.6234C92.9242 53.4661 92.599 54.2551 92.0087 54.8454L90.3585 56.4956L85.9145 52.0515L87.5647 50.4014ZM72.115 30.2489L73.3204 29.0437C74.2557 29.8705 75.5334 30.0861 76.7047 29.6008C77.876 29.1156 78.6272 28.0597 78.7039 26.8138H80.4083C80.485 28.0597 81.2363 29.1156 82.4075 29.6008C83.5786 30.0858 84.8563 29.8706 85.7918 29.0437L86.9972 30.2489C86.1704 31.1842 85.9549 32.4621 86.4401 33.6334C86.9253 34.8047 87.9811 35.5559 89.227 35.6326V37.3369C87.9811 37.4136 86.9252 38.1649 86.4401 39.336C85.9549 40.5075 86.1703 41.7853 86.9972 42.7204L85.7918 43.9256C84.8566 43.0991 83.5788 42.8835 82.4075 43.3687C81.2363 43.8539 80.4851 44.9096 80.4083 46.1555H78.704C78.6273 44.9084 77.8764 43.8519 76.7055 43.367C75.5344 42.8821 74.2564 43.0979 73.3205 43.9258L72.1152 42.7204C72.9419 41.7851 73.1574 40.5072 72.6722 39.336C72.187 38.1649 71.1311 37.4136 69.8853 37.3369V35.6326C71.1313 35.5559 72.1871 34.8046 72.6722 33.6334C73.1572 32.4621 72.9419 31.1842 72.115 30.2489ZM42.2154 33.6078V39.7269H36.0962L42.2154 33.6078ZM77.7563 87.1864H34.8136V41.5407H43.1221C43.623 41.5407 44.029 41.1346 44.029 40.6338V32.3253H71.1112C71.1182 32.5277 71.0807 32.7355 70.9963 32.9393C70.7666 33.494 70.2718 33.8253 69.6731 33.8253C68.7899 33.8253 68.0714 34.5438 68.0714 35.427V37.5425C68.0714 38.4256 68.7899 39.1442 69.6731 39.1442C70.2719 39.1442 70.7666 39.4754 70.9963 40.0302C71.2261 40.5851 71.1105 41.1691 70.687 41.5926C70.0627 42.2171 70.0627 43.2332 70.687 43.8578L72.183 45.3537C72.8073 45.9781 73.8237 45.9782 74.4483 45.3537C74.8727 44.9294 75.4568 44.8131 76.0112 45.0429C76.5656 45.2725 76.8965 45.7678 76.8965 46.3679C76.8965 46.9833 77.2457 47.5179 77.7561 47.786V57.6451L77.4614 57.9397L68.7079 49.1862H72.3809C72.8818 49.1862 73.2878 48.7802 73.2878 48.2793C73.2878 47.7785 72.8818 47.3725 72.3809 47.3725H66.8942L65.1978 45.6761C65.0277 45.5061 64.7971 45.4105 64.5565 45.4105C64.3159 45.4105 64.0853 45.5061 63.9152 45.6761L62.2188 47.3725H51.2268C50.726 47.3725 50.3199 47.7785 50.3199 48.2793C50.3199 48.7802 50.726 49.1862 51.2268 49.1862H60.405L58.2097 51.3815C57.8556 51.7357 57.8556 52.3099 58.2097 52.664L62.9845 57.4387H51.2267C50.7258 57.4387 50.3198 57.8448 50.3198 58.3456C50.3198 58.8465 50.7258 59.2525 51.2267 59.2525H64.7982L70.4733 64.9275L67.8958 67.505H51.2271C50.7262 67.505 50.3202 67.9111 50.3202 68.4119C50.3202 68.9128 50.7262 69.3188 51.2271 69.3188H66.0825L63.8904 71.5109C63.7952 71.6061 63.7223 71.7214 63.6772 71.8485L60.3833 81.118C60.2643 81.4528 60.3518 81.8263 60.6071 82.0734C60.7794 82.2401 61.0067 82.3286 61.2379 82.3286C61.3493 82.3286 61.4618 82.308 61.5693 82.2659L70.5899 78.7229C70.7059 78.6773 70.8114 78.6083 70.8996 78.5201L77.4828 71.9367L77.7563 72.2102V87.1864ZM64.8245 53.6298C65.0016 53.8069 65.2337 53.8954 65.4658 53.8954C65.6979 53.8954 65.93 53.8068 66.1071 53.6298L68.3471 51.39L69.4603 52.5031L68.4631 53.5003C68.109 53.8545 68.109 54.4287 68.4631 54.7827C68.6402 54.9598 68.8722 55.0483 69.1044 55.0483C69.3365 55.0483 69.5686 54.9597 69.7457 54.7827L70.7429 53.7856L71.856 54.8987L69.6161 57.1386C69.262 57.4928 69.262 58.067 69.6161 58.421C69.7932 58.5981 70.0253 58.6866 70.2574 58.6866C70.4896 58.6866 70.7216 58.598 70.8987 58.421L73.1386 56.1812L74.2517 57.2943L73.2547 58.2915C72.9006 58.6457 72.9006 59.2199 73.2547 59.5739C73.4318 59.751 73.6638 59.8395 73.896 59.8395C74.1281 59.8395 74.3602 59.7509 74.5373 59.5739L75.5343 58.5768L76.1794 59.2218L71.7562 63.6449L60.1339 52.0226L64.5567 47.5997L67.0645 50.1075L64.8245 52.3474C64.4705 52.7014 64.4705 53.2756 64.8245 53.6298ZM64.9302 73.7386L68.7057 77.5141L62.7586 79.8499L64.9302 73.7386ZM70.3056 76.5489L65.8615 72.1048L84.6321 53.3342L89.076 57.7783L70.3056 76.5489ZM90.3877 82.2765L78.7653 70.6541L83.1882 66.2312L83.8341 66.8772L82.8371 67.8744C82.483 68.2286 82.483 68.8028 82.8371 69.1569C83.0142 69.334 83.2462 69.4224 83.4784 69.4224C83.7105 69.4224 83.9426 69.3338 84.1197 69.1569L85.1167 68.1597L86.2299 69.2728L83.99 71.5128C83.6359 71.867 83.6359 72.4412 83.99 72.7953C84.1671 72.9724 84.3991 73.0609 84.6313 73.0609C84.8634 73.0609 85.0955 72.9723 85.2726 72.7953L87.5125 70.5553L88.6256 71.6684L87.6284 72.6655C87.2743 73.0195 87.2743 73.5939 87.6284 73.9479C87.8055 74.125 88.0375 74.2135 88.2697 74.2135C88.5017 74.2135 88.7339 74.1249 88.911 73.9479L89.9082 72.9509L91.0213 74.064L88.7813 76.304C88.4272 76.6582 88.4272 77.2324 88.7813 77.5865C88.9584 77.7636 89.1904 77.8521 89.4226 77.8521C89.6548 77.8521 89.8868 77.7635 90.0639 77.5865L92.3039 75.3465L94.8108 77.8534L90.3877 82.2765ZM46.3032 44.315H40.1889C39.688 44.315 39.282 44.721 39.282 45.2218V51.3362C39.282 51.837 39.688 52.2431 40.1889 52.2431H46.3032C46.8041 52.2431 47.2101 51.837 47.2101 51.3362V45.2218C47.2101 44.7211 46.8041 44.315 46.3032 44.315ZM45.3963 50.4294H41.0958V46.1289H45.3963V50.4294Z" fill="black"/>
</g>
<defs>
<clipPath id="clip0_63_34">
<rect width="64" height="64" fill="white" transform="translate(33 25)"/>
</clipPath>
</defs>
</svg>
