<svg width="60" height="60" viewBox="0 0 60 60" fill="none" xmlns="http://www.w3.org/2000/svg">
<path d="M57.0715 31.6137V27.0343C57.0715 19.841 54.2479 13.0597 49.1208 7.93982C43.9937 2.81988 37.2032 0 30 0C22.7968 0 16.0062 2.81977 10.8792 7.9397C5.75227 13.0596 2.92863 19.8413 2.92863 27.0343V31.6137C2.03783 32.1345 1.29889 32.8788 0.785151 33.7729C0.271414 34.667 0.000742216 35.6796 0 36.7104L0 42.8574C0.00176802 44.424 0.625727 45.9259 1.73498 47.0336C2.84424 48.1413 4.3482 48.7644 5.91691 48.7661H5.99203C6.33687 50.2351 7.21044 51.5263 8.44655 52.394C9.68266 53.2617 11.195 53.6454 12.696 53.4719C14.1969 53.2985 15.5816 52.5802 16.5867 51.4536C17.5917 50.3269 18.147 48.8706 18.1468 47.3618V32.2058C18.1472 30.8558 17.7027 29.5431 16.8817 28.4704C16.0608 27.3977 14.9092 26.6246 13.6046 26.2705C12.3 25.9164 10.9149 26.0009 9.66322 26.511C8.4115 27.0211 7.36268 27.9284 6.67863 29.0929V27.0343C6.67863 14.1925 17.1405 3.74487 30 3.74487C42.8595 3.74487 53.3215 14.1925 53.3215 27.0343V29.0927C52.6375 27.9281 51.5886 27.0207 50.3369 26.5106C49.0851 26.0005 47.7001 25.916 46.3954 26.2701C45.0908 26.6242 43.9391 27.3973 43.1182 28.47C42.2973 29.5428 41.8527 30.8555 41.8532 32.2056V47.3619C41.8549 48.6655 42.2706 49.9349 43.0404 50.9877C43.8103 52.0404 44.8947 52.8222 46.1377 53.2205V55.4352C46.1348 55.6518 46.0474 55.8587 45.894 56.0118C45.7407 56.165 45.5335 56.2523 45.3166 56.2551H31.8364C31.3392 56.2551 30.8623 56.4524 30.5106 56.8036C30.159 57.1547 29.9614 57.631 29.9614 58.1276C29.9614 58.6242 30.159 59.1004 30.5106 59.4516C30.8623 59.8027 31.3392 60 31.8364 60H45.3164C46.5283 59.9986 47.6901 59.5172 48.5471 58.6615C49.404 57.8057 49.886 56.6455 49.8874 55.4352V53.2204C50.9 52.8947 51.8112 52.3137 52.533 51.5333C53.2549 50.753 53.7628 49.7999 54.0077 48.7661H54.0829C55.6516 48.7644 57.1556 48.1414 58.2649 47.0337C59.3742 45.9259 59.9982 44.424 60 42.8574V36.7104C59.9993 35.6797 59.7286 34.667 59.2149 33.7729C58.7012 32.8788 57.9623 32.1345 57.0715 31.6137ZM3.75 42.8574V36.7104C3.75094 36.1524 3.96762 35.6163 4.35483 35.2139C4.74204 34.8116 5.26987 34.5741 5.8282 34.5509V45.0168C5.26989 44.9937 4.74208 44.7562 4.35487 44.3539C3.96766 43.9515 3.75097 43.4154 3.75 42.8574ZM9.5782 32.2058C9.57599 31.8885 9.63667 31.5738 9.75676 31.2799C9.87684 30.9861 10.054 30.7189 10.2779 30.4937C10.5018 30.2684 10.7682 30.0897 11.0616 29.9677C11.355 29.8458 11.6697 29.783 11.9875 29.783C12.3053 29.783 12.62 29.8458 12.9134 29.9677C13.2068 30.0897 13.4732 30.2684 13.6971 30.4937C13.9211 30.7189 14.0982 30.9861 14.2183 31.2799C14.3384 31.5738 14.3991 31.8885 14.3968 32.2058V47.3619C14.3991 47.6793 14.3384 47.9939 14.2183 48.2878C14.0982 48.5817 13.9211 48.8489 13.6971 49.0741C13.4732 49.2993 13.2068 49.478 12.9134 49.6C12.62 49.722 12.3053 49.7848 11.9875 49.7848C11.6697 49.7848 11.355 49.722 11.0616 49.6C10.7682 49.478 10.5018 49.2993 10.2779 49.0741C10.054 48.8489 9.87684 48.5817 9.75676 48.2878C9.63667 47.9939 9.57599 47.6793 9.5782 47.3619V32.2058ZM50.4218 47.3619C50.424 47.6793 50.3633 47.9939 50.2432 48.2878C50.1232 48.5817 49.946 48.8489 49.7221 49.0741C49.4982 49.2993 49.2318 49.478 48.9384 49.6C48.645 49.722 48.3303 49.7848 48.0125 49.7848C47.6947 49.7848 47.38 49.722 47.0866 49.6C46.7932 49.478 46.5268 49.2993 46.3029 49.0741C46.0789 48.8489 45.9018 48.5817 45.7817 48.2878C45.6616 47.9939 45.6009 47.6793 45.6032 47.3619V32.2058C45.6009 31.8885 45.6616 31.5738 45.7817 31.2799C45.9018 30.9861 46.0789 30.7189 46.3029 30.4937C46.5268 30.2684 46.7932 30.0897 47.0866 29.9677C47.38 29.8458 47.6947 29.783 48.0125 29.783C48.3303 29.783 48.645 29.8458 48.9384 29.9677C49.2318 30.0897 49.4982 30.2684 49.7221 30.4937C49.946 30.7189 50.1232 30.9861 50.2432 31.2799C50.3633 31.5738 50.424 31.8885 50.4218 32.2058V47.3619ZM56.25 42.8574C56.249 43.4154 56.0323 43.9515 55.6451 44.3539C55.2579 44.7562 54.7301 44.9937 54.1718 45.0168V34.5509C54.7301 34.5741 55.258 34.8116 55.6452 35.2139C56.0324 35.6163 56.2491 36.1524 56.25 36.7104V42.8574Z" fill="#BA2629"/>
</svg>
