<svg width="26" height="26" viewBox="0 0 26 26" fill="none" xmlns="http://www.w3.org/2000/svg">
<path d="M13 5.2C12.8293 5.19995 12.6602 5.23355 12.5025 5.29886C12.3447 5.36418 12.2014 5.45994 12.0807 5.58066C11.9599 5.70139 11.8642 5.84471 11.7989 6.00246C11.7336 6.1602 11.7 6.32927 11.7 6.5V11.7H9.1C8.75522 11.7 8.42456 11.837 8.18077 12.0808C7.93697 12.3246 7.8 12.6552 7.8 13C7.8 13.3448 7.93697 13.6754 8.18077 13.9192C8.42456 14.163 8.75522 14.3 9.1 14.3H13C13.1707 14.3 13.3398 14.2664 13.4975 14.2011C13.6553 14.1358 13.7986 14.0401 13.9193 13.9193C14.0401 13.7986 14.1358 13.6553 14.2011 13.4975C14.2665 13.3398 14.3 13.1707 14.3 13V6.5C14.3 6.32927 14.2665 6.1602 14.2011 6.00246C14.1358 5.84471 14.0401 5.70139 13.9193 5.58066C13.7986 5.45994 13.6553 5.36418 13.4975 5.29886C13.3398 5.23355 13.1707 5.19995 13 5.2ZM13 0C10.4288 0 7.91543 0.762436 5.77759 2.19089C3.63975 3.61935 1.97351 5.64967 0.989572 8.02511C0.00563269 10.4006 -0.251811 13.0144 0.249797 15.5362C0.751405 18.0579 1.98953 20.3743 3.80762 22.1924C5.6257 24.0105 7.94208 25.2486 10.4638 25.7502C12.9856 26.2518 15.5994 25.9944 17.9749 25.0104C20.3503 24.0265 22.3806 22.3602 23.8091 20.2224C25.2376 18.0846 26 15.5712 26 13C25.9961 9.55339 24.6252 6.24908 22.188 3.81197C19.7509 1.37485 16.4466 0.00394303 13 0ZM13 23.4C10.9431 23.4 8.93234 22.79 7.22207 21.6473C5.5118 20.5045 4.17881 18.8803 3.39166 16.9799C2.60451 15.0796 2.39855 12.9885 2.79984 10.9711C3.20112 8.95366 4.19163 7.10055 5.64609 5.64609C7.10056 4.19162 8.95366 3.20112 10.9711 2.79983C12.9885 2.39855 15.0796 2.6045 16.9799 3.39165C18.8803 4.1788 20.5045 5.5118 21.6473 7.22207C22.79 8.93234 23.4 10.9431 23.4 13C23.3968 15.7573 22.3001 18.4007 20.3504 20.3504C18.4007 22.3001 15.7573 23.3968 13 23.4Z" fill="black"/>
</svg>
