<svg width="64" height="64" viewBox="0 0 64 64" fill="none" xmlns="http://www.w3.org/2000/svg">
<path d="M22 61.9975C23.3138 62.001 24.6152 61.7439 25.8289 61.2412C27.0427 60.7385 28.1448 60.0001 29.0713 59.0687L49.0713 39.0683C50.9441 37.1916 51.9959 34.6487 51.9959 31.9975C51.9959 29.3462 50.9441 26.8033 49.0713 24.9267L29.0713 4.92665C28.1436 3.99416 27.0411 3.25386 25.8268 2.74814C24.6126 2.24242 23.3105 1.98122 21.9951 1.9795C20.6797 1.97778 19.377 2.23559 18.1614 2.73814C16.9458 3.24069 15.8414 3.97811 14.9112 4.90818C13.9811 5.83824 13.2436 6.94267 12.741 8.1582C12.2383 9.37374 11.9804 10.6765 11.9821 11.9918C11.9837 13.3072 12.2448 14.6093 12.7504 15.8236C13.2561 17.0379 13.9963 18.1405 14.9287 19.0683L27.8584 31.9975L14.9287 44.9267C13.5303 46.3252 12.5779 48.107 12.1922 50.0468C11.8064 51.9866 12.0044 53.9972 12.7613 55.8244C13.5182 57.6517 14.7999 59.2134 16.4444 60.3122C18.0889 61.411 20.0222 61.9974 22 61.9975ZM22 6.00087C22.788 5.99936 23.5685 6.15358 24.2967 6.45465C25.0248 6.75573 25.6864 7.19774 26.2432 7.75527L46.2432 27.7548C47.3665 28.881 47.9973 30.4068 47.9973 31.9975C47.9973 33.5881 47.3665 35.1139 46.2432 36.2401L26.2432 56.2401C25.1179 57.3655 23.5918 57.9978 22.0004 57.9978C20.409 57.9979 18.8827 57.3658 17.7573 56.2406C16.632 55.1154 15.9997 53.5892 15.9996 51.9978C15.9995 50.4064 16.6316 48.8801 17.7569 47.7548L32.1006 33.4115C32.4729 33.035 32.6817 32.5269 32.6817 31.9975C32.6817 31.468 32.4729 30.9599 32.1006 30.5834L17.7569 16.2401C16.9172 15.4014 16.3453 14.3325 16.1135 13.1686C15.8817 12.0046 16.0005 10.7981 16.4549 9.70178C16.9092 8.60542 17.6786 7.66853 18.6657 7.00972C19.6529 6.35091 20.8132 5.99981 22 6.00087Z" fill="white"/>
</svg>
