<svg width="60" height="60" viewBox="0 0 60 60" fill="none" xmlns="http://www.w3.org/2000/svg">
<g clip-path="url(#clip0_2_255)">
<path d="M6.13403 6.66779H9.65012V10.1935H6.13403V6.66779Z" fill="#BA2629"/>
<path d="M11.9939 6.66779H15.5099V10.1935H11.9939V6.66779Z" fill="#BA2629"/>
<path d="M17.8537 6.66779H21.3693V10.1935H17.8537V6.66779Z" fill="#BA2629"/>
<path d="M60 0H0V51.698H16.7679L15.1382 56.6711L20.9958 55.7574L25.1015 60L28.3763 49.9443L29.8828 50.9399L31.5083 49.8656L34.8083 60L38.9145 55.7574L44.7739 56.6716L43.1406 51.698H60V0ZM56.4844 3.5257V13.1731H3.51562V3.5257H56.4844ZM22.2523 51.9937L20.2702 52.3027L21.9841 47.0728L22.3064 47.1391L24.0912 49.7896L24.7714 49.6577L23.568 53.3528L22.2523 51.9937ZM27.9611 45.4477L25.7048 45.8853L24.418 43.9746L22.1631 43.5104L21.7007 41.2491L19.7951 39.9591L20.2318 37.6959L18.9651 35.7687L20.2318 33.8416L19.7951 31.5788L21.7007 30.2884L22.1635 28.027L24.418 27.5633L25.7048 25.6522L27.9611 26.0898L29.8828 24.8204L31.8045 26.0902L34.0608 25.6526L35.3476 27.5633L37.6025 28.0275L38.0649 30.2884L39.9706 31.5788L39.5338 33.8416L40.8005 35.7692L39.5338 37.6964L39.9706 39.9591L38.0649 41.2495L37.6021 43.5109L35.3476 43.9746L34.0608 45.8858L31.8045 45.4477L29.8828 46.7175L27.9611 45.4477ZM37.6579 51.9937L36.3419 53.3528L35.1485 49.6875L35.6744 49.7896L37.4588 47.1391L37.9115 47.0462L39.6378 52.3022L37.6579 51.9937ZM41.9829 48.1728L40.9071 44.8984L41.2207 43.3667L43.8638 41.5768L43.2578 38.4366L45.011 35.7687L43.2578 33.1009L43.8638 29.9606L41.2207 28.1708L40.5803 25.041L37.4593 24.3988L35.6744 21.7484L32.5429 22.3558L29.8828 20.5984L27.2227 22.3558L24.0912 21.7484L22.3068 24.3988L19.1853 25.041L18.5449 28.1712L15.9018 29.9606L16.5079 33.1013L14.7551 35.7692L16.5079 38.4366L15.9018 41.5773L18.5449 43.3667L18.9116 45.1575L17.9233 48.1728H3.51562V16.6988H56.4844V48.1728H41.9829Z" fill="#BA2629"/>
<path d="M38.232 35.7687C38.232 31.1522 34.4865 27.3962 29.8828 27.3962C25.2791 27.3962 21.5337 31.1522 21.5337 35.7687C21.5337 40.3857 25.2791 44.1417 29.8828 44.1417C34.4865 44.1417 38.232 40.3857 38.232 35.7687ZM29.8828 40.616C27.2177 40.616 25.0493 38.4416 25.0493 35.7687C25.0493 33.0963 27.2177 30.9219 29.8828 30.9219C32.5479 30.9219 34.7163 33.0963 34.7163 35.7687C34.7163 38.4416 32.5479 40.616 29.8828 40.616Z" fill="#BA2629"/>
</g>
<defs>
<clipPath id="clip0_2_255">
<rect width="60" height="60" fill="white"/>
</clipPath>
</defs>
</svg>
