<svg width="27" height="33" viewBox="0 0 27 33" fill="none" xmlns="http://www.w3.org/2000/svg">
<path d="M23.0448 4.01047C20.5132 1.44261 17.0796 -2.70568e-08 13.4993 0C9.9191 2.70568e-08 6.48548 1.44261 3.95387 4.01047C1.42225 6.57834 2.66749e-08 10.0611 0 13.6926C-2.66749e-08 17.3241 1.42225 20.8069 3.95387 23.3748L8.98426 28.4772C9.09866 28.5932 9.23447 28.6852 9.38393 28.748C9.5334 28.8108 9.69359 28.8432 9.85538 28.8432C10.0172 28.8432 10.1774 28.8108 10.3268 28.748C10.4763 28.6852 10.6121 28.5932 10.7265 28.4772C10.8409 28.3611 10.9316 28.2234 10.9935 28.0718C11.0555 27.9202 11.0873 27.7577 11.0873 27.5936C11.0873 27.4295 11.0555 27.267 10.9935 27.1154C10.9316 26.9638 10.8409 26.826 10.7265 26.71L5.6961 21.6076C4.15043 20.0417 3.09738 18.046 2.6702 15.873C2.24301 13.6999 2.46089 11.4472 3.29625 9.39976C4.13161 7.35234 5.54693 5.60225 7.36313 4.37092C9.17933 3.13958 11.3148 2.48234 13.4993 2.48234C15.6839 2.48234 17.8194 3.13958 19.6356 4.37092C21.4518 5.60225 22.8671 7.35234 23.7024 9.39976C24.5378 11.4472 24.7557 13.6999 24.3285 15.873C23.9013 18.046 22.8483 20.0417 21.3026 21.6076L12.6282 30.4061C12.5132 30.5218 12.422 30.6595 12.3597 30.8111C12.2974 30.9628 12.2653 31.1254 12.2653 31.2897C12.2653 31.454 12.2974 31.6167 12.3597 31.7683C12.422 31.92 12.5132 32.0576 12.6282 32.1733C12.7423 32.2899 12.878 32.3825 13.0275 32.4457C13.177 32.5089 13.3374 32.5414 13.4993 32.5414C13.6613 32.5414 13.8217 32.5089 13.9712 32.4457C14.1207 32.3825 14.2564 32.2899 14.3705 32.1733L23.0448 23.3748C24.2987 22.1035 25.2934 20.5941 25.9721 18.9328C26.6507 17.2715 27 15.4909 27 13.6926C27 11.8944 26.6507 10.1137 25.9721 8.45242C25.2934 6.79113 24.2987 5.28174 23.0448 4.01047Z" fill="black"/>
<path d="M19.634 13.7778C19.634 12.5471 19.2742 11.344 18.6001 10.3207C17.926 9.29747 16.968 8.49992 15.847 8.02896C14.726 7.55799 13.4926 7.43477 12.3026 7.67486C11.1126 7.91496 10.0195 8.50759 9.16154 9.37782C8.3036 10.248 7.71933 11.3568 7.48262 12.5638C7.24592 13.7709 7.3674 15.022 7.83172 16.159C8.29603 17.296 9.08233 18.2678 10.0912 18.9515C11.1 19.6353 12.2861 20.0002 13.4994 20.0002C15.1264 20.0002 16.6867 19.3446 17.8372 18.1777C18.9877 17.0108 19.634 15.4281 19.634 13.7778ZM9.8186 13.7778C9.8186 13.0393 10.0345 12.3175 10.4389 11.7035C10.8434 11.0896 11.4182 10.6111 12.0908 10.3285C12.7634 10.0459 13.5035 9.97196 14.2175 10.116C14.9315 10.2601 15.5873 10.6157 16.1021 11.1378C16.6168 11.6599 16.9674 12.3252 17.1094 13.0494C17.2514 13.7736 17.1786 14.5243 16.9 15.2065C16.6214 15.8887 16.1496 16.4718 15.5443 16.882C14.939 17.2923 14.2274 17.5112 13.4994 17.5112C12.5232 17.5112 11.587 17.1179 10.8967 16.4177C10.2064 15.7176 9.8186 14.7679 9.8186 13.7778Z" fill="black"/>
</svg>
