<svg width="50" height="50" viewBox="0 0 50 50" fill="none" xmlns="http://www.w3.org/2000/svg">
<g clip-path="url(#clip0_9_443)">
<path d="M47.3221 17.7172C46.6623 15.6743 46.9436 12.6076 45.2287 10.2397C43.5004 7.85316 40.4945 7.17484 38.7971 5.93343C37.1176 4.70511 35.5551 2.03216 32.73 1.11029C29.9846 0.214388 27.1772 1.43011 25.0004 1.43011C22.824 1.43011 20.0167 0.214095 17.2708 1.11019C14.4462 2.03187 12.8825 4.7054 11.204 5.93314C9.50853 7.17308 6.50033 7.85326 4.7723 10.2394C3.05892 12.6053 3.33734 15.679 2.67875 17.7171C2.05199 19.6569 0.000427246 21.9849 0.000427246 24.9997C0.000427246 28.0164 2.04965 30.3355 2.67875 32.2823C3.33851 34.3252 3.05726 37.3919 4.77211 39.7598C6.50033 42.1464 9.50619 42.8246 11.2037 44.0661C12.8829 45.2943 14.4457 47.9674 17.2708 48.8892C20.0144 49.7845 22.8262 48.5694 25.0004 48.5694C27.1716 48.5694 29.99 49.7832 32.73 48.8893C35.5547 47.9676 37.1175 45.2947 38.7968 44.0663C40.4923 42.8264 43.5005 42.1462 45.2285 39.7601C46.942 37.3941 46.6634 34.3206 47.3221 32.2824C47.9489 30.3425 50.0004 28.0145 50.0004 24.9997C50.0004 21.9832 47.9517 19.6649 47.3221 17.7172ZM43.6052 31.0812C42.8362 33.4616 43.0376 36.1255 42.065 37.4687C41.0792 38.8297 38.4895 39.4514 36.4911 40.9131C34.5147 42.3585 33.1294 44.6498 31.5183 45.1755C29.9941 45.673 27.5101 44.6629 25.0005 44.6629C22.4726 44.6629 20.0142 45.6751 18.4827 45.1755C16.8717 44.6498 15.4884 42.3601 13.5098 40.913C11.5233 39.4602 8.91879 38.8257 7.93588 37.4685C6.96635 36.1298 7.16019 33.4474 6.39584 31.0813C5.64662 28.763 3.90668 26.7557 3.90668 24.9997C3.90668 23.242 5.64506 21.2416 6.39564 18.9183C7.16469 16.538 6.96322 13.8739 7.93588 12.5308C8.92103 11.1706 11.5127 10.5469 13.5098 9.08636C15.4925 7.63626 16.8691 5.35042 18.4825 4.82396C20.0054 4.32708 22.4975 5.33656 25.0003 5.33656C27.5328 5.33656 29.9851 4.32367 31.5182 4.82396C33.1289 5.34954 34.5134 7.64017 36.4911 9.08646C38.4774 10.5393 41.0821 11.1738 42.065 12.5309C43.0347 13.8699 42.8398 16.5495 43.605 18.9181V18.9182C44.3542 21.2365 46.0942 23.2438 46.0942 24.9997C46.0942 26.7575 44.3558 28.7578 43.6052 31.0812ZM33.9988 18.7307C34.7616 19.4935 34.7616 20.7301 33.9988 21.4928L24.2228 31.2688C23.46 32.0316 22.2233 32.0315 21.4606 31.2688L16.0022 25.8104C15.2394 25.0476 15.2393 23.811 16.0021 23.0483C16.7649 22.2856 18.0017 22.2855 18.7642 23.0483L22.8416 27.1256L31.2365 18.7308C31.9993 17.968 33.236 17.968 33.9988 18.7307Z" fill="black"/>
</g>
<defs>
<clipPath id="clip0_9_443">
<rect width="50" height="50" fill="white" transform="translate(0.000427246 -0.000488281)"/>
</clipPath>
</defs>
</svg>
