<svg width="60" height="60" viewBox="0 0 60 60" fill="none" xmlns="http://www.w3.org/2000/svg">
<g clip-path="url(#clip0_2_153)">
<path d="M51.5427 40.3935C51.4638 40.2647 51.3697 40.1466 51.2614 40.0425C47.7189 35.67 42.848 32.4168 37.2681 30.9019C41.3374 28.435 44.0625 23.9634 44.0625 18.8672C44.0625 18.8282 44.0612 18.789 44.0609 18.75H45.4736C46.4443 18.75 47.2314 17.963 47.2314 16.9922C47.2314 16.0214 46.4443 15.2344 45.4736 15.2344H44.1776C43.8553 12.7855 42.9036 10.4761 41.3801 8.47547C39.7634 6.3525 37.5507 4.70156 35.077 3.75141C34.4637 1.58906 32.473 0 30.1168 0H29.8832C27.527 0 25.5363 1.58906 24.9229 3.75129C22.4491 4.70145 20.2368 6.35238 18.6199 8.47535C17.0963 10.4761 16.1447 12.7855 15.8224 15.2344H14.5264C13.5557 15.2344 12.7686 16.0214 12.7686 16.9922C12.7686 17.963 13.5557 18.75 14.5264 18.75H15.94C15.9396 18.789 15.9376 18.8282 15.9376 18.8672C15.9376 23.9634 18.6627 28.435 22.732 30.9018C11.1984 34.033 2.69051 44.5925 2.69051 57.1036V58.2422C2.69051 59.213 3.47754 60 4.44832 60H55.5518C56.5226 60 57.3096 59.213 57.3096 58.2422V57.1036C57.3095 50.8066 55.1541 45.0039 51.5427 40.3935ZM18.75 36.2382C22.0584 34.4732 25.8333 33.472 29.8377 33.472H30.1623C34.1667 33.472 37.9417 34.4732 41.25 36.2382V43.8281H18.75V36.2382ZM24.7266 7.72031V8.43609C24.7266 9.40687 25.5136 10.1939 26.4844 10.1939C27.4552 10.1939 28.2422 9.40687 28.2422 8.43609V5.1566C28.2422 4.2518 28.9782 3.51562 29.8832 3.51562H30.1168C31.0216 3.51562 31.7577 4.2518 31.7577 5.1566V8.43633C31.7577 9.40711 32.5447 10.1941 33.5155 10.1941C34.4863 10.1941 35.2733 9.40711 35.2733 8.43633V7.72031C38.0558 9.30293 40.0427 12.0812 40.6157 15.2344H19.3842C19.9571 12.0812 21.9441 9.30293 24.7266 7.72031ZM19.4531 18.8672C19.4531 18.8282 19.455 18.789 19.4555 18.75H40.5454C40.5458 18.789 40.547 18.8282 40.547 18.8672C40.547 24.6827 35.8157 29.4141 30.0001 29.4141C24.1845 29.4141 19.4531 24.6827 19.4531 18.8672ZM15.2344 38.538V45.5859C15.2344 46.5567 16.0214 47.3438 16.9922 47.3438H43.0078C43.9786 47.3438 44.7656 46.5567 44.7656 45.5859V38.5382C46.0536 39.5535 47.2339 40.6993 48.2862 41.9562V56.4844H11.7177C11.7203 56.4455 11.7236 56.4068 11.7236 56.3672V42.0117C11.7236 41.9903 11.7211 41.9695 11.7204 41.9482C12.771 40.6944 13.9491 39.5513 15.2344 38.538ZM8.20793 47.5876V56.3672C8.20793 56.4068 8.21133 56.4455 8.21379 56.4844H6.2141C6.29566 53.3271 7.0002 50.3223 8.20793 47.5876ZM51.8018 56.4844V47.6104C53.0034 50.3389 53.7046 53.3358 53.7859 56.4844H51.8018Z" fill="#BA2629"/>
</g>
<defs>
<clipPath id="clip0_2_153">
<rect width="60" height="60" fill="white"/>
</clipPath>
</defs>
</svg>
