<svg width="50" height="51" viewBox="0 0 50 51" fill="none" xmlns="http://www.w3.org/2000/svg">
<g clip-path="url(#clip0_8_423)">
<path d="M15.9575 9.88721C11.509 9.88721 7.89698 13.509 7.89698 17.9477C7.89698 22.3864 11.509 26.0082 15.9575 26.0082C20.3962 26.0082 24.018 22.3963 24.018 17.9477C24.018 13.4992 20.406 9.88721 15.9575 9.88721ZM15.9575 24.3942C12.4046 24.3942 9.51105 21.5006 9.51105 17.9477C9.51105 14.3948 12.3947 11.5013 15.9575 11.5013C19.5104 11.5013 22.4039 14.3948 22.4039 17.9477C22.4039 21.5006 19.5104 24.3942 15.9575 24.3942Z" fill="black"/>
<path d="M37.8852 16.334C34.3323 16.334 31.4388 19.2275 31.4388 22.7804C31.4388 26.3334 34.3323 29.2269 37.8852 29.2269C41.4382 29.2269 44.3317 26.3334 44.3317 22.7804C44.3317 19.2275 41.4382 16.334 37.8852 16.334ZM37.8852 27.6128C35.2181 27.6128 33.0529 25.4476 33.0529 22.7804C33.0529 20.1133 35.2181 17.9481 37.8852 17.9481C40.5524 17.9481 42.7176 20.1133 42.7176 22.7804C42.7176 25.4476 40.5524 27.6128 37.8852 27.6128Z" fill="black"/>
<path d="M42.5011 29.4828L37.8852 35.9489L33.2694 29.4828C33.2694 29.4828 31.114 30.3882 29.4606 32.022C26.5572 27.3963 22.2366 25.7822 22.2366 25.7822L15.9575 34.5809L9.67836 25.7822C9.67836 25.7822 -0.547371 29.6698 0.0234593 42.1099H49.9809C50.4435 32.0909 42.5011 29.4828 42.5011 29.4828ZM30.2775 40.5155H1.62769C1.62769 40.5155 1.20449 32.1598 9.15674 27.849L15.9575 37.3661L22.7582 27.849C30.7597 32.3369 30.2775 40.5155 30.2775 40.5155ZM31.8915 40.5155C31.8915 40.5155 31.9998 36.7559 30.2676 33.5081C30.9959 32.7306 31.8325 32.0712 32.7576 31.5496L37.8852 38.7243L43.0129 31.5496C46.2804 33.3802 48.3078 36.7559 48.357 40.5155H31.8915Z" fill="black"/>
</g>
<defs>
<clipPath id="clip0_8_423">
<rect width="50" height="50" fill="white" transform="translate(0.000427246 0.998535)"/>
</clipPath>
</defs>
</svg>
