<svg width="60" height="60" viewBox="0 0 60 60" fill="none" xmlns="http://www.w3.org/2000/svg">
<g clip-path="url(#clip0_2_195)">
<path d="M55 1.25003H5.00004C2.2425 1.25003 0 3.49253 0 6.24995V36.25C0 39.0075 2.2425 41.25 5.00004 41.25H17.5001C18.1901 41.25 18.7501 40.6912 18.7501 40C18.7501 39.3087 18.1901 38.7499 17.5001 38.7499H5.00004C3.62133 38.7499 2.50008 37.6287 2.50008 36.25V6.24995C2.49996 4.87124 3.62121 3.74999 5.00004 3.74999H55.0001C56.3788 3.74999 57.5 4.87124 57.5 6.24995V32.5C57.5 33.1912 58.0601 33.75 58.7501 33.75C59.4401 33.75 60.0001 33.1912 60.0001 32.5V6.24995C60 3.49253 57.7575 1.25003 55 1.25003Z" fill="#BA2629"/>
<path d="M52.5 13.75C49.7425 13.75 47.5 11.5075 47.5 8.74992C47.5 8.05863 46.9399 7.49988 46.2499 7.49988H13.75C13.06 7.49988 12.4999 8.05863 12.4999 8.74992C12.4999 11.5075 10.2574 13.75 7.49989 13.75C6.80989 13.75 6.24985 14.3087 6.24985 15V27.5C6.24985 28.1913 6.80989 28.7501 7.49989 28.7501C10.2574 28.7501 12.4999 30.9926 12.4999 33.7501C12.4999 34.4414 13.06 35.0002 13.75 35.0002H17.5C18.19 35.0002 18.75 34.4414 18.75 33.7501C18.75 33.0588 18.19 32.5001 17.5 32.5001H14.8962C14.3674 29.3638 11.8862 26.8826 8.74993 26.3538V16.1463C11.8862 15.6176 14.3674 13.1364 14.8962 10.0001H45.1037C45.6325 13.1364 48.1137 15.6176 51.25 16.1463V26.3538C47.7075 26.9512 45 30.04 45 33.75C45 34.4413 45.56 35 46.25 35C46.94 35 47.5001 34.4413 47.5001 33.75C47.5001 30.9925 49.7426 28.75 52.5001 28.75C53.1901 28.75 53.7502 28.1912 53.7502 27.4999V15C53.75 14.3087 53.19 13.75 52.5 13.75Z" fill="#BA2629"/>
<path d="M36.5213 15.4162C34.8625 13.5637 32.4863 12.5 30 12.5C25.175 12.5 21.25 16.4263 21.25 21.2501C21.25 21.9414 21.81 22.5001 22.5 22.5001C23.19 22.5001 23.75 21.9414 23.75 21.2501C23.75 17.8037 26.5538 15 30 15C31.775 15 33.4738 15.7588 34.6588 17.0837C35.1188 17.5975 35.9088 17.6425 36.4238 17.1812C36.9375 16.7212 36.9812 15.9313 36.5213 15.4162Z" fill="#BA2629"/>
<path d="M45 20H43.75C43.06 20 42.4999 20.5588 42.4999 21.2501C42.4999 21.9414 43.06 22.5001 43.75 22.5001H45C45.69 22.5001 46.25 21.9414 46.25 21.2501C46.25 20.5588 45.69 20 45 20Z" fill="#BA2629"/>
<path d="M16.25 20H15C14.31 20 13.75 20.5588 13.75 21.2501C13.75 21.9414 14.31 22.5001 15 22.5001H16.25C16.94 22.5001 17.5001 21.9414 17.5001 21.2501C17.5 20.5588 16.94 20 16.25 20Z" fill="#BA2629"/>
<path d="M32.5 23.75C27.5299 23.75 22.5 25.4675 22.5 28.7501C22.5 32.0325 27.53 33.75 32.5 33.75C37.47 33.75 42.4999 32.0325 42.4999 28.75C42.5 25.4675 37.47 23.75 32.5 23.75ZM32.5 31.25C27.8475 31.25 25 29.6313 25 28.7501C25 27.8688 27.8475 26.2501 32.5 26.2501C37.1524 26.2501 40 27.8688 40 28.7501C40 29.6312 37.1525 31.25 32.5 31.25Z" fill="#BA2629"/>
<path d="M41.25 40C40.56 40 40 40.5587 40 41.25C40 42.1313 37.1524 43.75 32.5 43.75C27.8475 43.75 25 42.1313 25 41.25C25 40.5587 24.4399 40 23.7499 40C23.0599 40 22.5 40.5587 22.5 41.25C22.5 44.5325 27.53 46.25 32.5 46.25C37.47 46.25 42.4999 44.5325 42.4999 41.25C42.5 40.5587 41.94 40 41.25 40Z" fill="#BA2629"/>
<path d="M41.25 46.25C40.56 46.25 40 46.8088 40 47.5001C40 48.3813 37.1524 50 32.5 50C27.8475 50 25 48.3813 25 47.5001C25 46.8088 24.4399 46.25 23.7499 46.25C23.0599 46.25 22.5 46.8088 22.5 47.5C22.5 50.7825 27.53 52.5 32.5 52.5C37.47 52.5 42.4999 50.7825 42.4999 47.5C42.5 46.8088 41.94 46.25 41.25 46.25Z" fill="#BA2629"/>
<path d="M41.25 27.5C40.56 27.5 40 28.0588 40 28.7501V53.75C40 54.6313 37.1524 56.25 32.5 56.25C27.8475 56.25 25 54.6313 25 53.75V28.7499C25 28.0587 24.4399 27.4999 23.7499 27.4999C23.0599 27.4999 22.5 28.0588 22.5 28.7499V53.7499C22.5 57.0324 27.53 58.7499 32.5 58.7499C37.47 58.7499 42.4999 57.0324 42.4999 53.7499V28.7499C42.5 28.0588 41.94 27.5 41.25 27.5Z" fill="#BA2629"/>
<path d="M41.25 33.75C40.56 33.75 40 34.3087 40 35C40 35.8813 37.1524 37.5 32.5 37.5C27.8475 37.5 25 35.8813 25 35C25 34.3087 24.4399 33.75 23.7499 33.75C23.0599 33.75 22.5 34.3087 22.5 35C22.5 38.2826 27.53 40.0001 32.5 40.0001C37.47 40.0001 42.4999 38.2826 42.4999 35C42.5 34.3087 41.94 33.75 41.25 33.75Z" fill="#BA2629"/>
<path d="M50 36.25C45.03 36.25 40.0001 37.9675 40.0001 41.25C40.0001 44.5325 45.0301 46.25 50 46.25C54.97 46.25 60 44.5325 60 41.25C60 37.9675 54.97 36.25 50 36.25ZM50 43.75C45.3476 43.75 42.5 42.1313 42.5 41.25C42.5 40.3688 45.3476 38.75 50 38.75C54.6525 38.75 57.5 40.3688 57.5 41.25C57.5 42.1313 54.6525 43.75 50 43.75Z" fill="#BA2629"/>
<path d="M58.75 40C58.06 40 57.4999 40.5587 57.4999 41.25V53.75C57.4999 54.6313 54.6524 56.25 49.9999 56.25C45.3475 56.25 42.4999 54.6313 42.4999 53.75V41.25C42.4999 40.5587 41.9399 40 41.2499 40C40.5599 40 39.9998 40.5587 39.9998 41.25V53.75C39.9998 57.0326 45.0299 58.7501 49.9998 58.7501C54.9698 58.7501 59.9998 57.0326 59.9998 53.75V41.25C60 40.5587 59.44 40 58.75 40Z" fill="#BA2629"/>
<path d="M58.75 46.25C58.06 46.25 57.4999 46.8088 57.4999 47.5001C57.4999 48.3813 54.6524 50 49.9999 50C45.3475 50 42.4999 48.3813 42.4999 47.5001C42.4999 46.8088 41.9399 46.25 41.2499 46.25C40.5599 46.25 39.9998 46.8088 39.9998 47.5001C39.9998 50.7826 45.0299 52.5001 49.9998 52.5001C54.97 52.5 60 50.7825 60 47.5C60 46.8088 59.44 46.25 58.75 46.25Z" fill="#BA2629"/>
</g>
<defs>
<clipPath id="clip0_2_195">
<rect width="60" height="60" fill="white"/>
</clipPath>
</defs>
</svg>
