<svg width="120" height="120" viewBox="0 0 120 120" fill="none" xmlns="http://www.w3.org/2000/svg">
<rect width="120" height="120" rx="60" fill="white"/>
<path d="M88 51.2501H73.64C74.8354 48.6317 75.2133 45.7136 74.7245 42.8771C74.2357 40.0406 72.9028 37.4173 70.9 35.3501C66 30.2501 56.52 29.7401 51.1 35.3501C49.0425 37.4052 47.676 40.0501 47.1903 42.9174C46.7047 45.7846 47.124 48.732 48.39 51.3501L47.28 57.8201C47.23 58.2001 47.23 59.1501 48.44 58.9801L54 58.0001V74.2501C54 74.5153 54.1054 74.7696 54.2929 74.9572C54.4804 75.1447 54.7348 75.2501 55 75.2501H59.94L56.47 78.7301C54.61 79.4201 50.47 77.7301 46.18 73.5701C42.36 69.7601 40.27 65.1801 41.02 63.2801L44.78 59.5301C44.8737 59.4371 44.9481 59.3265 44.9989 59.2046C45.0497 59.0828 45.0758 58.9521 45.0758 58.8201C45.0758 58.6881 45.0497 58.5573 44.9989 58.4355C44.9481 58.3136 44.8737 58.203 44.78 58.1101L38.46 51.7901C38.367 51.6963 38.2564 51.6219 38.1346 51.5712C38.0127 51.5204 37.882 51.4943 37.75 51.4943C37.618 51.4943 37.4873 51.5204 37.3654 51.5712C37.2436 51.6219 37.133 51.6963 37.04 51.7901C36.45 52.5601 33.11 55.7101 32.59 56.4701C28.84 62.0001 31.91 72.0001 39.85 79.9001C45.52 85.5601 52.22 88.7501 57.6 88.7501C59.5909 88.8082 61.553 88.2646 63.23 87.1901C63.64 86.9401 67.68 82.9601 67.96 82.7101C68.0537 82.6171 68.1281 82.5065 68.1789 82.3846C68.2297 82.2628 68.2558 82.1321 68.2558 82.0001C68.2558 81.8681 68.2297 81.7374 68.1789 81.6155C68.1281 81.4936 68.0537 81.383 67.96 81.2901L61.96 75.2901H88C88.2652 75.2901 88.5196 75.1847 88.7071 74.9972C88.8947 74.8096 89 74.5553 89 74.2901V52.2901C89.0054 52.1554 88.9835 52.0211 88.9357 51.8951C88.8878 51.7691 88.815 51.6541 88.7216 51.557C88.6282 51.4598 88.5162 51.3826 88.3922 51.3298C88.2682 51.2771 88.1348 51.25 88 51.2501ZM62.38 85.3501C57.81 88.7701 48.53 85.7501 41.27 78.4801C34.01 71.2101 31 62.0001 34.4 57.3701C34.72 56.9401 37.4 54.3701 37.75 53.9101L42.66 58.8201L39.15 62.3301C38 65.6201 40.39 70.4401 44.77 75.0001C49 79.0601 53.83 81.8001 57.42 80.6001L60.93 77.0901L65.84 82.0001L62.38 85.3501ZM87 53.2501V54.7201L71.49 65.0601L62.4 59.1901C64.4043 58.9678 66.3389 58.3236 68.0763 57.2998C69.8137 56.276 71.3145 54.8958 72.48 53.2501H87ZM50.32 50.7301C49.1517 48.4662 48.7342 45.8893 49.1279 43.3723C49.5216 40.8553 50.7062 38.529 52.51 36.7301C56.67 32.4101 64.78 31.8801 69.51 36.7301C73.83 40.8801 74.36 49.0001 69.51 53.7301C67.7111 55.5339 65.3847 56.7184 62.8678 57.1122C60.3508 57.5059 57.7739 57.0884 55.51 55.9201C55.313 55.83 55.0952 55.7954 54.88 55.8201L49.48 56.7501L50.41 51.3501C50.4425 51.139 50.4112 50.9231 50.32 50.7301ZM56 73.2501V58.3101C56.7796 58.6161 57.5866 58.8472 58.41 59.0001L71 67.0901C71.18 67.0901 71.21 67.4401 72.09 67.0901L87.09 57.0901V73.2501H56Z" fill="black"/>
<path d="M56 43.25H66C66.2652 43.25 66.5196 43.1446 66.7071 42.9571C66.8946 42.7696 67 42.5152 67 42.25C67 41.9848 66.8946 41.7304 66.7071 41.5429C66.5196 41.3554 66.2652 41.25 66 41.25H56C55.7348 41.25 55.4804 41.3554 55.2929 41.5429C55.1054 41.7304 55 41.9848 55 42.25C55 42.5152 55.1054 42.7696 55.2929 42.9571C55.4804 43.1446 55.7348 43.25 56 43.25Z" fill="black"/>
<path d="M54 48.25H68C68.2652 48.25 68.5196 48.1446 68.7071 47.9571C68.8946 47.7696 69 47.5152 69 47.25C69 46.9848 68.8946 46.7304 68.7071 46.5429C68.5196 46.3554 68.2652 46.25 68 46.25H54C53.7348 46.25 53.4804 46.3554 53.2929 46.5429C53.1054 46.7304 53 46.9848 53 47.25C53 47.5152 53.1054 47.7696 53.2929 47.9571C53.4804 48.1446 53.7348 48.25 54 48.25Z" fill="black"/>
</svg>
