<svg width="120" height="120" viewBox="0 0 120 120" fill="none" xmlns="http://www.w3.org/2000/svg">
<rect width="120" height="120" rx="60" fill="white"/>
<g clip-path="url(#clip0_63_31)">
<path d="M60 28C42.3552 28 28 42.3552 28 60C28 77.6448 42.3552 92 60 92C77.6448 92 92 77.6448 92 60C92 42.3552 77.645 28 60 28ZM60 88.5405C52.1605 88.5405 45.05 85.3629 39.8866 80.229C37.8248 78.1788 36.0745 75.816 34.7117 73.2192C32.6362 69.2648 31.4595 64.7674 31.4595 60C31.4595 44.2627 44.2627 31.4595 60 31.4595C67.4645 31.4595 74.2677 34.3413 79.3588 39.0492C81.9984 41.4899 84.1781 44.421 85.7498 47.6971C87.5379 51.4245 88.5405 55.5973 88.5405 60C88.5405 75.7373 75.7373 88.5405 60 88.5405Z" fill="black"/>
<path d="M49.0619 52.7354C50.9214 52.7354 52.4343 54.1618 52.4343 56.1078H55.8938C55.8938 52.2158 52.8291 49.2759 49.0619 49.2759C45.2947 49.2759 42.23 52.2158 42.23 56.1078H45.6895C45.6895 54.1618 47.2026 52.7354 49.0619 52.7354Z" fill="black"/>
<path d="M70.9377 52.7354C72.7971 52.7354 74.31 54.1618 74.31 56.1078H77.7695C77.7695 52.2158 74.7048 49.2759 70.9377 49.2759C67.1705 49.2759 64.1058 52.2158 64.1058 56.1078H67.5653C67.5653 54.1618 69.0782 52.7354 70.9377 52.7354Z" fill="black"/>
<path d="M59.9388 77.7294C66.6316 77.7294 73.0458 74.3066 76.7183 68.6237L73.8125 66.7461C70.4403 71.9645 64.2699 74.877 58.0949 74.1641C53.2814 73.6091 48.8301 70.8359 46.1873 66.7461L43.2817 68.6237C46.4796 73.5728 51.8691 76.9285 57.6983 77.6007C58.4467 77.6872 59.1939 77.7294 59.9388 77.7294Z" fill="black"/>
</g>
<defs>
<clipPath id="clip0_63_31">
<rect width="64" height="64" fill="white" transform="translate(28 28)"/>
</clipPath>
</defs>
</svg>
