<svg width="120" height="120" viewBox="0 0 120 120" fill="none" xmlns="http://www.w3.org/2000/svg">
<rect width="120" height="120" rx="60" fill="white"/>
<path d="M86 37H83V30C83 29.7348 82.8946 29.4804 82.7071 29.2929C82.5196 29.1054 82.2652 29 82 29H38C37.7348 29 37.4804 29.1054 37.2929 29.2929C37.1054 29.4804 37 29.7348 37 30V37H34C32.6744 37.0016 31.4036 37.5289 30.4662 38.4662C29.5289 39.4036 29.0016 40.6744 29 42V78C29.0016 79.3256 29.5289 80.5964 30.4662 81.5338C31.4036 82.4711 32.6744 82.9984 34 83H52.8L47.251 89.342C47.1248 89.4864 47.0429 89.664 47.0148 89.8536C46.9867 90.0433 47.0138 90.237 47.0927 90.4117C47.1716 90.5864 47.2991 90.7348 47.46 90.8391C47.6208 90.9434 47.8083 90.9992 48 91H72C72.1921 91 72.38 90.9447 72.5415 90.8407C72.703 90.7367 72.8311 90.5884 72.9105 90.4135C72.9899 90.2386 73.0173 90.0446 72.9894 89.8546C72.9614 89.6646 72.8794 89.4866 72.753 89.342L67.2 83H86C87.3256 82.9984 88.5964 82.4711 89.5338 81.5338C90.4711 80.5964 90.9984 79.3256 91 78V42C90.9984 40.6744 90.4711 39.4036 89.5338 38.4662C88.5964 37.5289 87.3256 37.0016 86 37ZM38 69H82C82.2652 69 82.5196 68.8946 82.7071 68.7071C82.8946 68.5196 83 68.2652 83 68V43H84C84.2652 43 84.5196 43.1054 84.7071 43.2929C84.8946 43.4804 85 43.7348 85 44V72C85 72.2652 84.8946 72.5196 84.7071 72.7071C84.5196 72.8946 84.2652 73 84 73H36C35.7348 73 35.4804 72.8946 35.2929 72.7071C35.1054 72.5196 35 72.2652 35 72V44C35 43.7348 35.1054 43.4804 35.2929 43.2929C35.4804 43.1054 35.7348 43 36 43H37V68C37 68.2652 37.1054 68.5196 37.2929 68.7071C37.4804 68.8946 37.7348 69 38 69ZM39 35H60C60.4655 35.0013 60.9244 35.1103 61.3407 35.3185C61.7571 35.5267 62.1197 35.8284 62.4 36.2L63 37C63.4671 37.6195 64.0713 38.1225 64.7652 38.4695C65.4592 38.8165 66.2241 38.9981 67 39H76.586L69.458 46.128C69.2718 46.0268 69.058 45.9882 68.8482 46.0179C68.6384 46.0476 68.4437 46.1441 68.293 46.293L65.46 49.126L59.684 51.051C59.5026 51.1114 59.3423 51.2225 59.2222 51.3712C59.102 51.5199 59.027 51.7 59.006 51.89L58.106 60H46.816C46.5801 59.3328 46.1159 58.7704 45.5055 58.4124C44.8951 58.0543 44.1778 57.9235 43.4803 58.0432C42.7828 58.1629 42.15 58.5253 41.6939 59.0663C41.2378 59.6074 40.9876 60.2923 40.9876 61C40.9876 61.7077 41.2378 62.3926 41.6939 62.9337C42.15 63.4747 42.7828 63.8371 43.4803 63.9568C44.1778 64.0765 44.8951 63.9457 45.5055 63.5876C46.1159 63.2296 46.5801 62.6672 46.816 62H59C59.0367 62 59.0735 61.998 59.11 61.994L68.11 60.994C68.2999 60.9728 68.4797 60.8977 68.6282 60.7776C68.7767 60.6574 68.8877 60.4973 68.948 60.316L70.874 54.54L73.707 51.707C73.8559 51.5563 73.9524 51.3616 73.9821 51.1518C74.0118 50.942 73.9732 50.7282 73.872 50.542L81 43.414V67H39V35ZM81 40.586L72.5 49.086L70.914 47.5L79.414 39H81V40.586ZM64.293 54.293L60.309 58.277L60.923 52.747L65.73 51.147L68.856 54.273L67.256 59.08L61.725 59.694L65.709 55.71L64.293 54.293ZM70 52.586L67.414 50L69 48.414L71.586 51L70 52.586ZM45 61C45 61.1978 44.9414 61.3911 44.8315 61.5556C44.7216 61.72 44.5654 61.8482 44.3827 61.9239C44.2 61.9996 43.9989 62.0194 43.8049 61.9808C43.6109 61.9422 43.4327 61.847 43.2929 61.7071C43.153 61.5673 43.0578 61.3891 43.0192 61.1951C42.9806 61.0011 43.0004 60.8 43.0761 60.6173C43.1518 60.4346 43.28 60.2784 43.4444 60.1685C43.6089 60.0586 43.8022 60 44 60C44.2652 60 44.5196 60.1054 44.7071 60.2929C44.8946 60.4804 45 60.7348 45 61ZM81 31V37H67C66.5345 36.9987 66.0756 36.8897 65.6593 36.6815C65.2429 36.4733 64.8803 36.1716 64.6 35.8L64 35C63.5329 34.3805 62.9287 33.8775 62.2348 33.5305C61.5408 33.1835 60.7759 33.0019 60 33H39V31H81ZM69.8 89H50.2L55.45 83H64.542L69.8 89ZM89 78C89 78.7956 88.6839 79.5587 88.1213 80.1213C87.5587 80.6839 86.7956 81 86 81H34C33.2044 81 32.4413 80.6839 31.8787 80.1213C31.3161 79.5587 31 78.7956 31 78V42C31 41.2044 31.3161 40.4413 31.8787 39.8787C32.4413 39.3161 33.2044 39 34 39H37V41H36C35.2044 41 34.4413 41.3161 33.8787 41.8787C33.3161 42.4413 33 43.2044 33 44V72C33 72.7956 33.3161 73.5587 33.8787 74.1213C34.4413 74.6839 35.2044 75 36 75H84C84.7956 75 85.5587 74.6839 86.1213 74.1213C86.6839 73.5587 87 72.7956 87 72V44C87 43.2044 86.6839 42.4413 86.1213 41.8787C85.5587 41.3161 84.7956 41 84 41H83V39H86C86.7956 39 87.5587 39.3161 88.1213 39.8787C88.6839 40.4413 89 41.2044 89 42V78Z" fill="black"/>
<path d="M59 77H61V79H59V77Z" fill="black"/>
<path d="M45 55C45 53.9391 45.4214 52.9217 46.1716 52.1716C46.9217 51.4214 47.9391 51 49 51C50.0609 51 51.0783 51.4214 51.8284 52.1716C52.5786 52.9217 53 53.9391 53 55V56H55V55C55 53.4087 54.3679 51.8826 53.2426 50.7574C52.1174 49.6321 50.5913 49 49 49C47.4087 49 45.8826 49.6321 44.7574 50.7574C43.6321 51.8826 43 53.4087 43 55V56H45V55Z" fill="black"/>
<path d="M77 33H79V35H77V33Z" fill="black"/>
<path d="M73 33H75V35H73V33Z" fill="black"/>
<path d="M69 33H71V35H69V33Z" fill="black"/>
</svg>
