<svg width="50" height="47" viewBox="0 0 50 47" fill="none" xmlns="http://www.w3.org/2000/svg">
<g clip-path="url(#clip0_9_457)">
<path d="M45.8337 1.95703H4.16713C1.86918 1.95703 0.000427246 3.67628 0.000427246 5.7903V28.7903C0.000427246 30.9044 1.86918 32.6237 4.16713 32.6237H14.5838C15.1588 32.6237 15.6255 32.1953 15.6255 31.6653C15.6255 31.1353 15.1588 30.7069 14.5838 30.7069H4.16713C3.0182 30.7069 2.08383 29.8473 2.08383 28.7903V5.7903C2.08373 4.73329 3.0181 3.87367 4.16713 3.87367H45.8338C46.9828 3.87367 47.9171 4.73329 47.9171 5.7903V25.9153C47.9171 26.4453 48.3838 26.8737 48.9588 26.8737C49.5338 26.8737 50.0005 26.4453 50.0005 25.9153V5.7903C50.0004 3.67628 48.1317 1.95703 45.8337 1.95703Z" fill="black"/>
<path d="M43.7504 11.5403C41.4525 11.5403 39.5837 9.82101 39.5837 7.7069C39.5837 7.17691 39.117 6.74854 38.542 6.74854H11.4587C10.8837 6.74854 10.417 7.17691 10.417 7.7069C10.417 9.82101 8.54828 11.5403 6.25033 11.5403C5.67533 11.5403 5.20863 11.9686 5.20863 12.4986V22.082C5.20863 22.612 5.67533 23.0403 6.25033 23.0403C8.54828 23.0403 10.417 24.7596 10.417 26.8737C10.417 27.4037 10.8837 27.8321 11.4587 27.8321H14.5837C15.1587 27.8321 15.6254 27.4037 15.6254 26.8737C15.6254 26.3437 15.1587 25.9154 14.5837 25.9154H12.4139C11.9733 23.5109 9.90561 21.6086 7.29203 21.2032V13.3775C9.90561 12.9721 11.9733 11.0698 12.4139 8.66535H37.5869C38.0275 11.0698 40.0952 12.9721 42.7087 13.3775V21.2032C39.7567 21.6612 37.5004 24.0293 37.5004 26.8736C37.5004 27.4036 37.9671 27.832 38.5421 27.832C39.1171 27.832 39.5838 27.4036 39.5838 26.8736C39.5838 24.7595 41.4526 23.0403 43.7505 23.0403C44.3255 23.0403 44.7922 22.6119 44.7922 22.0819V12.4986C44.7921 11.9686 44.3254 11.5403 43.7504 11.5403Z" fill="black"/>
<path d="M30.4348 12.8178C29.0525 11.3975 27.0723 10.582 25.0004 10.582C20.9796 10.582 17.7087 13.5922 17.7087 17.2904C17.7087 17.8204 18.1754 18.2488 18.7504 18.2488C19.3254 18.2488 19.7921 17.8204 19.7921 17.2904C19.7921 14.6482 22.1286 12.4987 25.0004 12.4987C26.4796 12.4987 27.8952 13.0804 28.8827 14.0962C29.2661 14.4901 29.9244 14.5246 30.3536 14.1709C30.7817 13.8183 30.8181 13.2127 30.4348 12.8178Z" fill="black"/>
<path d="M37.5004 16.332H36.4587C35.8837 16.332 35.417 16.7604 35.417 17.2904C35.417 17.8204 35.8837 18.2488 36.4587 18.2488H37.5004C38.0754 18.2488 38.5421 17.8204 38.5421 17.2904C38.5421 16.7604 38.0754 16.332 37.5004 16.332Z" fill="black"/>
<path d="M13.5421 16.332H12.5004C11.9254 16.332 11.4587 16.7604 11.4587 17.2904C11.4587 17.8204 11.9254 18.2488 12.5004 18.2488H13.5421C14.1171 18.2488 14.5838 17.8204 14.5838 17.2904C14.5837 16.7604 14.1171 16.332 13.5421 16.332Z" fill="black"/>
<path d="M27.0837 19.207C22.942 19.207 18.7504 20.5238 18.7504 23.0404C18.7504 25.5569 22.9421 26.8737 27.0837 26.8737C31.2254 26.8737 35.417 25.5569 35.417 23.0403C35.4171 20.5238 31.2254 19.207 27.0837 19.207ZM27.0837 24.957C23.2067 24.957 20.8337 23.716 20.8337 23.0404C20.8337 22.3648 23.2067 21.1238 27.0837 21.1238C30.9608 21.1238 33.3337 22.3648 33.3337 23.0404C33.3337 23.7159 30.9609 24.957 27.0837 24.957Z" fill="black"/>
<path d="M34.3754 31.665C33.8004 31.665 33.3337 32.0934 33.3337 32.6234C33.3337 33.299 30.9608 34.54 27.0837 34.54C23.2067 34.54 20.8337 33.299 20.8337 32.6234C20.8337 32.0934 20.367 31.665 19.792 31.665C19.217 31.665 18.7504 32.0934 18.7504 32.6234C18.7504 35.14 22.9421 36.4568 27.0837 36.4568C31.2254 36.4568 35.417 35.14 35.417 32.6234C35.4171 32.0934 34.9504 31.665 34.3754 31.665Z" fill="black"/>
<path d="M34.3754 36.457C33.8004 36.457 33.3337 36.8854 33.3337 37.4154C33.3337 38.091 30.9608 39.332 27.0837 39.332C23.2067 39.332 20.8337 38.091 20.8337 37.4154C20.8337 36.8854 20.367 36.457 19.792 36.457C19.217 36.457 18.7504 36.8854 18.7504 37.4153C18.7504 39.9319 22.9421 41.2487 27.0837 41.2487C31.2254 41.2487 35.417 39.9319 35.417 37.4153C35.4171 36.8854 34.9504 36.457 34.3754 36.457Z" fill="black"/>
<path d="M34.3754 22.0821C33.8004 22.0821 33.3337 22.5105 33.3337 23.0405V42.2071C33.3337 42.8827 30.9608 44.1238 27.0837 44.1238C23.2067 44.1238 20.8337 42.8827 20.8337 42.2071V23.0404C20.8337 22.5104 20.367 22.082 19.792 22.082C19.217 22.082 18.7504 22.5105 18.7504 23.0404V42.207C18.7504 44.7236 22.9421 46.0404 27.0837 46.0404C31.2254 46.0404 35.417 44.7236 35.417 42.207V23.0404C35.4171 22.5105 34.9504 22.0821 34.3754 22.0821Z" fill="black"/>
<path d="M34.3754 26.8735C33.8004 26.8735 33.3337 27.3019 33.3337 27.8319C33.3337 28.5075 30.9608 29.7485 27.0837 29.7485C23.2067 29.7485 20.8337 28.5075 20.8337 27.8319C20.8337 27.3019 20.367 26.8735 19.792 26.8735C19.217 26.8735 18.7504 27.3019 18.7504 27.8319C18.7504 30.3485 22.9421 31.6653 27.0837 31.6653C31.2254 31.6653 35.417 30.3485 35.417 27.8319C35.4171 27.3019 34.9504 26.8735 34.3754 26.8735Z" fill="black"/>
<path d="M41.6671 28.79C37.5254 28.79 33.3338 30.1068 33.3338 32.6234C33.3338 35.14 37.5255 36.4568 41.6671 36.4568C45.8087 36.4568 50.0004 35.14 50.0004 32.6234C50.0004 30.1068 45.8087 28.79 41.6671 28.79ZM41.6671 34.54C37.7901 34.54 35.4171 33.299 35.4171 32.6234C35.4171 31.9478 37.7901 30.7068 41.6671 30.7068C45.5442 30.7068 47.9171 31.9478 47.9171 32.6234C47.9171 33.299 45.5442 34.54 41.6671 34.54Z" fill="black"/>
<path d="M48.9587 31.665C48.3837 31.665 47.917 32.0934 47.917 32.6234V42.2068C47.917 42.8824 45.5441 44.1234 41.667 44.1234C37.79 44.1234 35.417 42.8824 35.417 42.2068V32.6234C35.417 32.0934 34.9503 31.665 34.3753 31.665C33.8003 31.665 33.3336 32.0934 33.3336 32.6234V42.2068C33.3336 44.7234 37.5253 46.0401 41.6669 46.0401C45.8086 46.0401 50.0002 44.7234 50.0002 42.2068V32.6234C50.0004 32.0934 49.5337 31.665 48.9587 31.665Z" fill="black"/>
<path d="M48.9587 36.457C48.3837 36.457 47.917 36.8854 47.917 37.4154C47.917 38.091 45.5441 39.332 41.667 39.332C37.79 39.332 35.417 38.091 35.417 37.4154C35.417 36.8854 34.9503 36.457 34.3753 36.457C33.8003 36.457 33.3336 36.8854 33.3336 37.4154C33.3336 39.932 37.5253 41.2488 41.6669 41.2488C45.8087 41.2487 50.0004 39.9319 50.0004 37.4153C50.0004 36.8854 49.5337 36.457 48.9587 36.457Z" fill="black"/>
</g>
<defs>
<clipPath id="clip0_9_457">
<rect width="50" height="46" fill="white" transform="translate(0.000427246 0.998535)"/>
</clipPath>
</defs>
</svg>
