<svg width="209" height="60" viewBox="0 0 209 60" fill="none" xmlns="http://www.w3.org/2000/svg">
<g clip-path="url(#clip0_1_66)">
<path fill-rule="evenodd" clip-rule="evenodd" d="M39.504 33.2675C40.3375 33.0321 41.4824 32.6282 42.8111 32.1226C44.2171 31.5875 45.8254 30.9241 47.4629 30.2339C49.3082 29.4582 51.1907 28.6289 52.8762 27.8852C54.157 27.2967 55.3206 26.7509 56.2632 26.2801C57.2058 25.8093 57.9274 25.4428 58.3295 25.1914C58.6995 24.9043 58.9652 24.5029 59.0857 24.0491C59.6981 22.321 59.7807 19.0841 59.4372 15.8419C59.0937 12.5996 58.3348 9.36275 57.2484 7.59985C56.857 6.9605 56.4257 6.52981 55.957 6.35325C55.9064 6.35325 55.5789 6.3265 55.0197 6.30777C54.4606 6.28905 53.7656 6.26765 52.8896 6.24624C51.5289 6.22217 49.7928 6.21147 47.8464 6.23287C46.2754 6.24892 44.5712 6.28637 42.8218 6.35592C39.3433 6.46556 35.8728 6.75485 32.4239 7.22266C29.8224 7.60252 27.5484 8.12417 25.9801 8.82772C23.2215 10.077 22.175 10.2429 21.8768 10.2723C22.0499 10.3739 22.4093 10.7003 22.4306 11.7944C22.4306 13.132 21.504 13.8489 20.5321 14.614C19.2833 15.5957 17.9626 16.6364 18.4738 19.0841C19.1555 22.2701 14.4425 28.0484 11.2099 32.0156C9.99039 33.5109 8.98122 34.7495 8.5472 35.4932C8.0972 36.269 7.34631 36.9832 6.58477 37.7082C4.67293 39.5326 2.69186 41.4186 5.3253 44.4816C14.9803 55.6635 27.7774 46.6992 34.5833 41.9322C37.0969 40.172 38.7984 38.9896 39.2484 39.5888C39.5147 39.9633 39.2271 40.4047 38.5561 40.9049C37.6268 41.5951 35.9813 42.403 34.1679 43.2911C31.2389 44.7303 27.8599 46.3809 26.4327 48.0849C25.5247 49.155 25.4076 50.2732 26.699 51.3619C28.1129 52.539 30.3922 53.502 33.1215 54.1976C36.2981 54.9733 39.5483 55.4046 42.8165 55.4843C44.5927 55.5412 46.3707 55.4965 48.1419 55.3505C49.734 55.2226 51.3151 54.9821 52.8736 54.6309C53.8788 54.4147 54.8667 54.1241 55.8292 53.7615C56.6469 53.4561 57.4312 53.067 58.1697 52.6005C61.8097 50.2758 64.31 48.5665 65.9848 46.9373C67.6597 45.3082 68.5091 43.7646 68.8553 41.7637C69.013 40.7147 69.0505 39.6511 68.9671 38.5936C68.826 36.3519 68.2881 33.6634 67.2257 31.4351C66.1632 29.2067 64.5816 27.4438 62.3449 27.0399C61.8916 26.9594 61.4303 26.9343 60.9709 26.965C59.608 27.0683 58.2648 27.3535 56.9768 27.813C55.5764 28.3043 54.2101 28.8888 52.8869 29.5625C51.2893 30.365 49.7183 31.2639 48.2085 32.1252C46.2727 33.2274 44.4434 34.2653 42.8191 34.9796C42.4943 35.1187 42.1748 35.2471 41.8632 35.3541C41.5517 35.4611 41.2401 35.5601 40.9446 35.6377C39.5866 36.0041 37.089 36.7639 34.0614 37.6868C25.7404 40.2174 13.3774 43.984 9.70548 44.1391C9.2901 44.1552 9.09572 44.1044 9.09306 43.992C9.06909 43.3714 16.6871 40.6669 23.77 38.1549C29.3191 36.1861 34.5381 34.3349 35.486 33.7089C36.157 33.2595 36.3301 32.9064 36.149 32.6389C35.7815 32.0851 34.0188 31.7828 32.0191 31.4377C30.0194 31.0926 27.7588 30.7021 26.4274 29.9691C25.3836 29.3966 24.8963 28.6155 25.5114 27.4866C26.249 26.149 28.2673 26.7135 30.4854 27.9387C33.1108 29.3886 36.0212 31.7427 37.4085 32.8662C37.7786 33.1659 38.0422 33.3799 38.162 33.4628C38.2978 33.5618 38.7851 33.4815 39.5253 33.2729L39.504 33.2675ZM77.6423 1.21704C77.717 1.25689 77.7825 1.31197 77.8348 1.37877C77.8871 1.44557 77.9249 1.5226 77.9458 1.60493V1.69321C77.9177 1.83571 77.8404 1.96364 77.7275 2.05435C77.5586 2.20473 77.3716 2.33324 77.171 2.43689C77.1193 2.46642 77.0703 2.50044 77.0245 2.53854C76.3428 3.08962 75.347 4.94614 74.6281 6.86152C73.9091 8.7769 73.4778 10.7618 73.9198 11.5751C73.9436 11.6185 73.9712 11.6596 74.0023 11.6981C74.5349 12.3642 72.5937 14.6407 70.4156 17.2008C67.6917 20.4109 64.5869 24.0544 65.4603 25.4936C66.6452 27.4278 69.6541 33.519 71.052 38.5535C71.9174 41.662 72.1677 44.3692 70.9988 45.4526C69.5769 46.7902 67.0047 48.8072 64.0757 50.859C61.4787 52.7026 58.7913 54.4142 56.0236 55.9872C55.5576 56.2547 55.0677 56.5035 54.5564 56.7389C54.0452 56.9743 53.4594 57.2178 52.8869 57.4318C51.3147 58.0216 49.7056 58.5068 48.07 58.8843C46.3373 59.2909 44.5821 59.5947 42.8138 59.7939C42.039 59.8822 41.3227 59.941 40.6836 59.9731C40.0446 60.0052 39.4481 60.0132 38.9635 59.9892C38.2366 59.9597 37.7813 59.9597 37.4937 59.9571C37.3322 59.967 37.1701 59.9553 37.0117 59.9223C36.9505 59.8982 36.9292 59.8608 36.8919 59.7939C36.812 59.6494 36.6469 59.3498 35.7203 58.7238C34.7937 58.0979 33.7818 57.7849 32.5623 57.3863C30.5972 56.7362 28.1848 55.939 25.2585 53.7267C22.9019 51.9344 20.1993 51.6749 17.454 51.4101C14.7087 51.1453 11.8889 50.8751 9.38596 49.0292C6.65666 47.0336 4.04985 47.2289 2.28979 47.3493C1.93032 47.376 1.60547 47.4001 1.32056 47.4028C0.495115 47.4028 0.00783586 47.2369 -0.0108032 46.4237H-0.000152321V46.2792C0.0664158 45.0808 0.694819 43.7004 1.59748 42.3281C2.79376 40.5625 4.18157 38.9359 5.73536 37.4781C10.4218 33.0401 12.4348 28.5352 14.5224 23.8699C15.8138 20.9834 17.1318 18.0354 19.1262 15.0045C19.5469 14.3652 19.4404 14.0843 19.1661 13.8997C19.0308 13.818 18.8882 13.749 18.7401 13.6937C18.5273 13.6184 18.3271 13.5111 18.1463 13.3754C17.6803 12.9848 17.6431 12.2171 19.4244 10.077C20.7238 8.52008 23.6369 7.30559 27.2954 6.38C31.87 5.22168 37.6108 4.50742 42.8218 4.15163C44.4567 4.02858 46.0464 3.94298 47.5322 3.88412C49.2017 3.82527 50.7274 3.80655 52.0588 3.81725C52.341 3.81725 52.6233 3.83865 52.8842 3.86005C57.1686 4.18909 59.7514 6.71974 61.3224 9.53395C62.8934 12.3482 63.4526 15.4406 63.6736 16.9039C63.9825 18.7764 63.7934 19.6111 63.6603 20.2076C63.5574 20.5301 63.5391 20.8738 63.607 21.2054C63.6623 21.4601 63.6784 21.7217 63.655 21.9812C63.6316 22.1189 63.6417 22.2602 63.6842 22.3932C63.7641 22.5243 64.0331 22.4387 64.8053 21.9545C65.8357 21.3285 68.5331 17.57 70.397 13.8088C71.6991 11.1738 72.5911 8.53614 72.2156 6.97655C71.7443 5.08257 71.6671 3.87342 71.8934 2.94249C72.1198 2.01155 72.6683 1.3722 73.4325 0.649918C74.644 -0.497703 75.6612 0.114896 76.4467 0.607116C76.6323 0.728724 76.8273 0.835178 77.0298 0.925454C77.2417 1.0014 77.4451 1.09911 77.6369 1.21704H77.6423ZM56.4683 35.5547C55.7121 37.5236 54.2582 40.0596 52.9109 42.1703C52.2718 43.1815 51.6541 44.091 51.1508 44.7919C50.8124 45.3077 50.4254 45.7897 49.9952 46.2311C49.8913 46.3087 49.7768 46.3996 49.6623 46.4986C49.3029 46.7822 48.9434 47.0684 48.8289 46.9962C48.7144 46.9239 48.8742 46.4959 49.5851 45.3483C50.565 43.7727 51.5848 41.3009 52.5567 38.928L52.8656 38.1817L52.9189 38.056C53.4966 36.5929 54.1562 35.1639 54.8946 33.7758C55.531 32.671 56.1141 32.0905 56.6227 32.4516C57.2192 32.8662 57.0487 34.0567 56.4683 35.552V35.5547ZM47.3538 25.9003C45.7892 25.1559 44.2705 24.3179 42.8058 23.391H42.7925C41.123 22.3638 39.4455 21.2509 37.9836 20.2825C36.7455 19.4559 35.6671 18.7256 34.8815 18.2575C34.7567 18.191 34.6381 18.1131 34.5274 18.0247C34.4129 17.9151 34.4848 17.899 34.7138 17.9686C34.8709 18.0167 35.1265 18.1103 35.462 18.2361C36.9185 18.8166 39.8795 20.1434 42.8458 21.5853C45.812 23.0272 48.773 24.5814 50.2322 25.598C50.523 25.7864 50.791 26.0082 51.031 26.2587C51.1961 26.4513 51.2307 26.6011 51.1109 26.6974C51.0258 26.7531 50.9274 26.7845 50.826 26.7884C49.9606 26.9034 48.749 26.5369 47.3538 25.9003Z" fill="#14AA4C"/>
<path fill-rule="evenodd" clip-rule="evenodd" d="M188.936 26.1224H194.296V36.6838H203.611V26.1224H208.971V54.0506H203.611V41.8093H194.296V54.0506H188.936V26.1224Z" fill="#1874BB" stroke="#00AEEF" stroke-width="0.22" stroke-miterlimit="22.93"/>
<path fill-rule="evenodd" clip-rule="evenodd" d="M78.9791 26.1224H84.3418V36.6838H93.6507V26.1224H98.9921V54.0506H93.6507V41.8093H84.3418V54.0506H78.9791V26.1224Z" fill="#1874BB" stroke="#00AEEF" stroke-width="0.22" stroke-miterlimit="22.93"/>
<path fill-rule="evenodd" clip-rule="evenodd" d="M174.156 26.1224H168.772L158.046 54.0506H163.561L165.835 48.2964H177.159L179.348 54.0506H184.86L174.156 26.1224ZM171.493 43.104H167.786L171.498 33.578V33.5378L175.186 43.104H171.493Z" fill="#1874BB" stroke="#00AEEF" stroke-width="0.22" stroke-miterlimit="22.93"/>
<path fill-rule="evenodd" clip-rule="evenodd" d="M105.343 26.1224H120.531V31.3362H110.599V36.3788H120.531V41.4883H110.599V48.8341H120.531V54.0506H105.343V26.1224Z" fill="#1874BB" stroke="#00AEEF" stroke-width="0.22" stroke-miterlimit="22.93"/>
<path fill-rule="evenodd" clip-rule="evenodd" d="M128.144 26.1224H133.315L139.751 45.6026L146.272 26.1224H151.376L156.073 54.0506H150.971L147.965 36.4243L142.046 54.0506H137.389L131.555 36.4243L128.508 54.0506H123.34L128.144 26.1224Z" fill="#1874BB" stroke="#00AEEF" stroke-width="0.22" stroke-miterlimit="22.93"/>
<path fill-rule="evenodd" clip-rule="evenodd" d="M203.456 20.8123C204.214 20.7392 204.78 20.5359 205.152 20.2024C205.34 20.0262 205.486 19.8107 205.582 19.5713C205.677 19.3318 205.719 19.0742 205.704 18.8167C205.703 18.6286 205.677 18.4414 205.626 18.2603C205.571 18.0645 205.494 17.8759 205.395 17.6985C205.3 17.5214 205.177 17.3613 205.03 17.225C204.884 17.0933 204.714 16.9907 204.529 16.9227C204.381 16.8755 204.23 16.8389 204.077 16.8131C203.899 16.781 203.695 16.7542 203.464 16.7328L202.972 16.7034C202.796 16.7034 202.607 16.7034 202.396 16.7034H201.249V20.8311H202.825C202.953 20.8311 203.067 20.8311 203.177 20.8311C203.286 20.8311 203.379 20.8311 203.467 20.8311L203.456 20.8123ZM203.47 15.1946C203.802 15.216 204.103 15.2428 204.375 15.2802C204.625 15.3121 204.873 15.3631 205.115 15.4327C205.438 15.5222 205.741 15.6689 206.012 15.8661C206.303 16.0808 206.559 16.3388 206.771 16.6312C207.002 16.9331 207.182 17.2711 207.304 17.6316C207.563 18.4397 207.536 19.3127 207.229 20.1034C207.053 20.5281 206.794 20.9128 206.468 21.235C206.117 21.5905 205.686 21.8557 205.211 22.0081C204.675 22.1795 204.117 22.2697 203.555 22.2756H199.523V10.6175H201.169V15.1652H202.99C203.158 15.1652 203.315 15.1652 203.464 15.1839L203.47 15.1946ZM161.337 21.0264C161.605 21.0171 161.872 20.9885 162.136 20.9408C162.399 20.8934 162.658 20.8226 162.908 20.7294C163.163 20.6292 163.41 20.5112 163.648 20.3763C163.872 20.2493 164.081 20.0996 164.274 19.9296C164.488 19.7308 164.684 19.5122 164.857 19.2768C165.088 18.9677 165.301 18.6463 165.496 18.3138L165.542 18.2362L165.622 18.279L166.865 18.9478L166.953 18.9933L166.91 19.0762C166.716 19.4614 166.491 19.83 166.237 20.1783C166.012 20.4864 165.756 20.7698 165.472 21.0237C165.208 21.2708 164.922 21.4937 164.618 21.6898C164.318 21.8828 163.997 22.0408 163.662 22.1606C163.318 22.2952 162.961 22.3946 162.597 22.4575C162.215 22.5222 161.828 22.5553 161.441 22.5565H161.252C160.431 22.56 159.617 22.4028 158.856 22.0937C158.125 21.7849 157.478 21.3041 156.97 20.692C156.458 20.1041 156.051 19.4317 155.767 18.7044C155.495 17.9915 155.358 17.234 155.362 16.4706C155.359 15.7646 155.473 15.0629 155.7 14.3948C155.933 13.7189 156.274 13.0862 156.712 12.5222C157.239 11.8289 157.919 11.2676 158.698 10.8823C159.494 10.5188 160.36 10.3361 161.233 10.3473H161.422C162.302 10.3461 163.17 10.5407 163.965 10.9171C164.767 11.3146 165.467 11.8911 166.013 12.6024C166.431 13.1363 166.749 13.7417 166.953 14.3894C167.17 15.0899 167.277 15.82 167.27 16.5536V16.6472H157.05C157.059 17.2248 157.166 17.7966 157.367 18.3379C157.572 18.8698 157.883 19.354 158.28 19.761C158.655 20.1653 159.108 20.4877 159.612 20.708C160.125 20.9225 160.675 21.0299 161.231 21.0237H161.324L161.337 21.0264ZM161.236 15.1866H165.456C165.376 14.8723 165.269 14.5654 165.137 14.269C165.009 13.9815 164.844 13.7117 164.647 13.4665C164.461 13.2313 164.247 13.0209 164.008 12.8405C163.761 12.6502 163.493 12.4895 163.209 12.3617C162.911 12.2205 162.598 12.1119 162.277 12.038C161.971 11.9685 161.659 11.9326 161.345 11.931H161.311C160.791 11.9275 160.275 12.0181 159.788 12.1985C159.311 12.382 158.872 12.6543 158.496 13.001C158.192 13.2784 157.935 13.6048 157.737 13.9667C157.523 14.3595 157.352 14.7749 157.229 15.2053L161.236 15.1866ZM188.484 22.273H186.859L186.833 22.2168L183.105 14.0657L179.412 22.2168L179.385 22.273H177.604L177.665 22.1392L182.887 10.6737L182.911 10.6175H183.289L183.315 10.6737L188.572 22.1392L188.633 22.273H188.484ZM138.424 20.9622C139.009 20.9696 139.589 20.8614 140.131 20.6438C140.661 20.422 141.138 20.0923 141.535 19.6754C142.129 19.0245 142.53 18.2197 142.693 17.3517C142.856 16.4838 142.773 15.5875 142.456 14.7639C141.997 13.6685 141.14 12.7896 140.059 12.3055C139.536 12.0862 138.975 11.9733 138.408 11.9733C137.842 11.9733 137.281 12.0862 136.758 12.3055C135.686 12.7948 134.839 13.673 134.385 14.7639C133.964 15.8771 133.958 17.1058 134.369 18.2228C134.582 18.7649 134.9 19.2595 135.304 19.6781C135.7 20.0949 136.178 20.4246 136.707 20.6465C137.249 20.864 137.828 20.9722 138.411 20.9648L138.424 20.9622ZM138.331 10.3393H138.52C139.298 10.34 140.067 10.4926 140.786 10.7887C141.52 11.1029 142.179 11.5687 142.722 12.1557C143.28 12.7281 143.723 13.4029 144.027 14.1433C144.483 15.2523 144.603 16.4722 144.371 17.6494C144.138 18.8265 143.565 19.9084 142.722 20.7588C142.183 21.336 141.529 21.7918 140.802 22.0964C140.077 22.3921 139.303 22.5447 138.52 22.5458H138.331C137.519 22.543 136.715 22.3737 135.969 22.0482C135.196 21.7 134.503 21.1934 133.935 20.5609C133.276 19.8353 132.799 18.9623 132.543 18.0142C132.211 16.8161 132.053 15.5765 132.071 14.3332C132.064 13.4787 132.12 12.6247 132.239 11.7785C132.327 11.1196 132.497 10.4744 132.745 9.85778C132.943 9.4032 133.183 8.96874 133.464 8.56035C133.698 8.21779 133.978 7.90984 134.297 7.64546C134.611 7.41487 134.947 7.2168 135.301 7.05427C135.707 6.86771 136.127 6.71472 136.558 6.59682C136.82 6.52181 137.087 6.46461 137.357 6.42561C137.642 6.38014 137.961 6.34001 138.323 6.29988H138.401H138.504C138.944 6.25976 139.434 6.22231 139.974 6.19556C140.515 6.1688 141.069 6.1474 141.692 6.13938C142.062 6.13938 142.411 6.11263 142.733 6.08855C143.055 6.06447 143.348 6.03237 143.611 5.99225L143.721 5.9762V7.56521L143.643 7.57859C143.168 7.65782 142.689 7.71229 142.208 7.74177C141.612 7.78457 140.877 7.81667 140.022 7.83807C139.684 7.83807 139.356 7.87017 139.05 7.8889L138.414 7.92368C138.185 7.94508 137.969 7.97183 137.764 8.00125C137.559 8.03068 137.375 8.06278 137.205 8.09488C136.896 8.14366 136.593 8.22619 136.302 8.34099C136.02 8.45179 135.752 8.59544 135.503 8.76901C135.247 8.94486 135.019 9.16068 134.83 9.40836C134.611 9.69314 134.424 10.0008 134.271 10.3259C134.1 10.6749 133.966 11.0407 133.871 11.4174C133.77 11.8197 133.699 12.2293 133.661 12.6426L133.581 13.4986C133.725 13.1463 133.903 12.8094 134.114 12.4928C134.431 12.015 134.838 11.6035 135.312 11.2809C136.203 10.6912 137.245 10.3726 138.313 10.3634L138.331 10.3393ZM115.248 21.0397C115.509 21.0299 115.769 21.0013 116.026 20.9541C116.288 20.9066 116.545 20.8359 116.795 20.7428C117.057 20.6443 117.31 20.5263 117.554 20.3897C117.778 20.2633 117.987 20.1135 118.18 19.9429C118.399 19.7303 118.601 19.5004 118.784 19.2554C119.009 18.9577 119.217 18.6478 119.407 18.3272L119.453 18.2496L119.532 18.2924L120.755 18.9612L120.834 19.004L120.792 19.0869C120.601 19.4677 120.382 19.8334 120.137 20.181C119.916 20.4922 119.662 20.7775 119.378 21.0317C119.104 21.2819 118.807 21.5058 118.491 21.7005C118.194 21.8867 117.877 22.0401 117.546 22.1579C117.202 22.2922 116.845 22.3917 116.481 22.4549C116.107 22.5182 115.729 22.5513 115.349 22.5538H115.16C114.339 22.5567 113.525 22.3995 112.764 22.091C112.028 21.7804 111.376 21.3002 110.86 20.6893C110.349 20.1024 109.945 19.4295 109.667 18.7017C109.162 17.3133 109.142 15.7933 109.611 14.3921C109.843 13.7162 110.185 13.0835 110.623 12.5195C111.149 11.8216 111.833 11.2587 112.617 10.877C113.418 10.5048 114.291 10.3165 115.174 10.3259H115.363C116.235 10.326 117.097 10.5197 117.887 10.893C118.689 11.2886 119.388 11.8666 119.929 12.581C120.352 13.1073 120.674 13.7077 120.88 14.352C121.101 15.061 121.214 15.7997 121.215 16.5429V16.6392H110.932C110.951 17.2179 111.064 17.7897 111.265 18.3325C111.557 19.1266 112.087 19.8101 112.782 20.2892C113.476 20.7682 114.302 21.0192 115.144 21.0076H115.24L115.248 21.0397ZM115.147 15.2H119.367C119.286 14.8938 119.179 14.5949 119.048 14.3065C118.915 14.0124 118.75 13.7342 118.555 13.4772C118.359 13.2401 118.137 13.0265 117.892 12.8405C117.645 12.6515 117.377 12.4909 117.093 12.3617C116.801 12.2216 116.495 12.1131 116.18 12.038C115.874 11.9684 115.562 11.9326 115.248 11.931H115.19C114.672 11.9267 114.157 12.0174 113.672 12.1985C113.193 12.3783 112.751 12.6438 112.367 12.9823C112.068 13.2641 111.813 13.5908 111.613 13.9507C111.396 14.343 111.223 14.7584 111.097 15.1893L115.147 15.2ZM94.5108 10.6175H95.0061L95.0274 10.6817L98.8883 22.1472L98.9309 22.273H97.2108L97.1895 22.2034L94.4256 13.9721L90.1652 22.2221L90.1386 22.273H89.7339L89.7072 22.2221L85.4469 13.9721L82.6936 22.2034L82.6723 22.2676H80.9469L80.9895 22.1419L84.8717 10.6764L84.893 10.6122H85.4016L85.4282 10.663L89.9362 19.4641L94.4229 10.663L94.4495 10.6122L94.5108 10.6175Z" fill="#14AA4C"/>
</g>
<defs>
<clipPath id="clip0_1_66">
<rect width="209" height="60" fill="white"/>
</clipPath>
</defs>
</svg>
