<svg width="200" height="60" viewBox="0 0 200 60" fill="none" xmlns="http://www.w3.org/2000/svg">
<path d="M81.48 40.13V38H70.4V23.6H72.49V36.12H79.91V23.87H82V36.12H83.57V40.13H81.48ZM85.1556 38V27.2H89.9056C90.219 27.2 90.5323 27.22 90.8456 27.26C91.159 27.2933 91.4356 27.3433 91.6756 27.41C92.2223 27.5633 92.689 27.87 93.0756 28.33C93.4623 28.7833 93.6556 29.39 93.6556 30.15C93.6556 30.5833 93.589 30.95 93.4556 31.25C93.3223 31.5433 93.139 31.7967 92.9056 32.01C92.799 32.1033 92.6856 32.1867 92.5656 32.26C92.4456 32.3333 92.3256 32.39 92.2056 32.43C92.4523 32.47 92.6956 32.5567 92.9356 32.69C93.3023 32.8833 93.6023 33.1633 93.8356 33.53C94.0756 33.89 94.1956 34.3733 94.1956 34.98C94.1956 35.7067 94.019 36.3167 93.6656 36.81C93.3123 37.2967 92.8123 37.63 92.1656 37.81C91.9123 37.8833 91.6256 37.9333 91.3056 37.96C90.9923 37.9867 90.679 38 90.3656 38H85.1556ZM87.2756 36.35H90.2356C90.3756 36.35 90.5356 36.3367 90.7156 36.31C90.8956 36.2833 91.0556 36.2467 91.1956 36.2C91.4956 36.1067 91.709 35.9367 91.8356 35.69C91.969 35.4433 92.0356 35.18 92.0356 34.9C92.0356 34.52 91.9356 34.2167 91.7356 33.99C91.5356 33.7567 91.2823 33.6067 90.9756 33.54C90.8423 33.4933 90.6956 33.4667 90.5356 33.46C90.3756 33.4533 90.239 33.45 90.1256 33.45H87.2756V36.35ZM87.2756 31.77H89.6156C89.809 31.77 90.0056 31.76 90.2056 31.74C90.4056 31.7133 90.579 31.67 90.7256 31.61C90.9856 31.51 91.179 31.3433 91.3056 31.11C91.4323 30.87 91.4956 30.61 91.4956 30.33C91.4956 30.0233 91.4256 29.75 91.2856 29.51C91.1456 29.27 90.9356 29.1033 90.6556 29.01C90.4623 28.9433 90.239 28.9067 89.9856 28.9C89.739 28.8867 89.5823 28.88 89.5156 28.88H87.2756V31.77ZM100.991 38.3C99.9174 38.3 98.9741 38.0667 98.1608 37.6C97.3541 37.1267 96.7241 36.47 96.2708 35.63C95.8241 34.7833 95.6008 33.8033 95.6008 32.69C95.6008 31.51 95.8208 30.4867 96.2608 29.62C96.7074 28.7533 97.3274 28.0833 98.1208 27.61C98.9141 27.1367 99.8374 26.9 100.891 26.9C101.991 26.9 102.927 27.1567 103.701 27.67C104.474 28.1767 105.051 28.9 105.431 29.84C105.817 30.78 105.971 31.8967 105.891 33.19H103.801V32.43C103.787 31.1767 103.547 30.25 103.081 29.65C102.621 29.05 101.917 28.75 100.971 28.75C99.9241 28.75 99.1374 29.08 98.6108 29.74C98.0841 30.4 97.8208 31.3533 97.8208 32.6C97.8208 33.7867 98.0841 34.7067 98.6108 35.36C99.1374 36.0067 99.8974 36.33 100.891 36.33C101.544 36.33 102.107 36.1833 102.581 35.89C103.061 35.59 103.434 35.1633 103.701 34.61L105.751 35.26C105.331 36.2267 104.694 36.9767 103.841 37.51C102.987 38.0367 102.037 38.3 100.991 38.3ZM97.1408 33.19V31.56H104.851V33.19H97.1408ZM110.651 38V29.08H106.961V27.2H116.431V29.08H112.741V38H110.651ZM118.32 38V27.2H120.41V31.61H125.68V27.2H127.77V38H125.68V33.58H120.41V38H118.32ZM135.266 38.3C134.186 38.3 133.249 38.0567 132.456 37.57C131.662 37.0833 131.049 36.4133 130.616 35.56C130.189 34.7 129.976 33.71 129.976 32.59C129.976 31.4633 130.196 30.4733 130.636 29.62C131.076 28.76 131.692 28.0933 132.486 27.62C133.279 27.14 134.206 26.9 135.266 26.9C136.346 26.9 137.282 27.1433 138.076 27.63C138.869 28.1167 139.482 28.7867 139.916 29.64C140.349 30.4933 140.566 31.4767 140.566 32.59C140.566 33.7167 140.346 34.71 139.906 35.57C139.472 36.4233 138.859 37.0933 138.066 37.58C137.272 38.06 136.339 38.3 135.266 38.3ZM135.266 36.33C136.299 36.33 137.069 35.9833 137.576 35.29C138.089 34.59 138.346 33.69 138.346 32.59C138.346 31.4633 138.086 30.5633 137.566 29.89C137.052 29.21 136.286 28.87 135.266 28.87C134.566 28.87 133.989 29.03 133.536 29.35C133.082 29.6633 132.746 30.1 132.526 30.66C132.306 31.2133 132.196 31.8567 132.196 32.59C132.196 33.7233 132.456 34.63 132.976 35.31C133.496 35.99 134.259 36.33 135.266 36.33ZM147.583 25.96C147.057 25.96 146.573 25.83 146.133 25.57C145.7 25.31 145.353 24.9633 145.093 24.53C144.833 24.0967 144.703 23.6133 144.703 23.08H146.363C146.363 23.4133 146.483 23.7 146.723 23.94C146.963 24.18 147.25 24.3 147.583 24.3C147.923 24.3 148.21 24.18 148.443 23.94C148.683 23.7 148.803 23.4133 148.803 23.08H150.463C150.463 23.6133 150.333 24.0967 150.073 24.53C149.813 24.9633 149.463 25.31 149.023 25.57C148.59 25.83 148.11 25.96 147.583 25.96ZM151.863 27.2V38H149.853V30.49L144.453 38H142.753V27.2H144.763V34.56L150.173 27.2H151.863ZM158.652 38V27.2H160.402L164.392 35.12L168.372 27.2H170.132V38H168.112V31.48L164.862 38H163.912L160.662 31.48V38H158.652ZM182.039 27.2V38H180.029V30.49L174.629 38H172.929V27.2H174.939V34.56L180.349 27.2H182.039ZM189.904 38.3C188.87 38.3 188.004 38.05 187.304 37.55C186.604 37.0433 186.074 36.36 185.714 35.5C185.354 34.64 185.174 33.67 185.174 32.59C185.174 31.51 185.35 30.54 185.704 29.68C186.064 28.82 186.59 28.1433 187.284 27.65C187.984 27.15 188.844 26.9 189.864 26.9C190.877 26.9 191.75 27.15 192.484 27.65C193.224 28.1433 193.794 28.82 194.194 29.68C194.594 30.5333 194.794 31.5033 194.794 32.59C194.794 33.67 194.594 34.6433 194.194 35.51C193.8 36.37 193.237 37.05 192.504 37.55C191.777 38.05 190.91 38.3 189.904 38.3ZM184.824 42.8V27.2H186.684V34.97H186.924V42.8H184.824ZM189.614 36.41C190.28 36.41 190.83 36.24 191.264 35.9C191.704 35.56 192.03 35.1033 192.244 34.53C192.464 33.95 192.574 33.3033 192.574 32.59C192.574 31.8833 192.464 31.2433 192.244 30.67C192.03 30.0967 191.7 29.64 191.254 29.3C190.807 28.96 190.237 28.79 189.544 28.79C188.89 28.79 188.35 28.95 187.924 29.27C187.504 29.59 187.19 30.0367 186.984 30.61C186.784 31.1833 186.684 31.8433 186.684 32.59C186.684 33.3367 186.784 33.9967 186.984 34.57C187.184 35.1433 187.5 35.5933 187.934 35.92C188.367 36.2467 188.927 36.41 189.614 36.41Z" fill="#2F323A"/>
<rect width="60" height="60" rx="5.96074" fill="#FBE303"/>
<g clip-path="url(#clip0_2006_5193)">
<path d="M47.4813 34.7271H44.8979L45.5096 26.1005C45.5724 25.2153 45.2614 24.3352 44.6565 23.6859C44.0516 23.0365 43.1957 22.6641 42.3082 22.6641C41.4207 22.6641 40.5647 23.0364 39.9598 23.6859C39.3549 24.3353 39.0439 25.2154 39.1067 26.1005L39.7184 34.7271H37.135C35.8064 34.7271 34.7256 35.8079 34.7256 37.1365V39.227C34.7256 39.5542 34.9908 39.8195 35.3181 39.8195H36.2407V49.407C36.2407 49.7341 36.506 49.9994 36.8332 49.9994H47.7831C48.1103 49.9994 48.3755 49.7341 48.3755 49.407V39.8195H49.2981C49.6253 39.8195 49.8906 39.5543 49.8906 39.227V37.1365C49.8907 35.808 48.8097 34.7271 47.4813 34.7271ZM40.8268 24.4936C41.214 24.0779 41.7401 23.8491 42.3082 23.8491C42.8762 23.8491 43.4023 24.0779 43.7895 24.4936C44.1768 24.9093 44.3679 25.4502 44.3277 26.0169L43.71 34.7273H40.9064L40.2887 26.0169C40.2485 25.4502 40.4396 24.9092 40.8268 24.4936ZM47.1907 48.8145H46.1772V45.6994C46.1772 45.3722 45.912 45.1069 45.5848 45.1069C45.2576 45.1069 44.9923 45.3721 44.9923 45.6994V48.8145H43.1264V45.6994C43.1264 45.3722 42.8611 45.1069 42.5339 45.1069C42.2068 45.1069 41.9414 45.3721 41.9414 45.6994V48.8145H40.2835V45.6994C40.2835 45.3722 40.0182 45.1069 39.6911 45.1069C39.3639 45.1069 39.0986 45.3721 39.0986 45.6994V48.8145H37.4257V39.8195H47.1907V48.8145ZM47.7832 38.6346H36.8332H35.9106V37.1366C35.9106 36.4614 36.4598 35.9121 37.135 35.9121H40.3545H44.2619H47.4813C48.1564 35.9121 48.7057 36.4613 48.7057 37.1366V38.6346H47.7832Z" fill="black"/>
<path d="M42.3085 24.7139C41.6174 24.7139 41.0552 25.2761 41.0552 25.9671C41.0552 26.6582 41.6174 27.2204 42.3085 27.2204C42.9996 27.2204 43.5617 26.6582 43.5617 25.9671C43.5617 25.2761 42.9995 24.7139 42.3085 24.7139ZM42.3085 26.0354C42.2708 26.0354 42.2401 26.0048 42.2401 25.9671C42.2401 25.9293 42.2707 25.8987 42.3085 25.8987C42.3462 25.8987 42.3768 25.9293 42.3768 25.9671C42.3768 26.0048 42.3461 26.0354 42.3085 26.0354Z" fill="black"/>
<path d="M33.7304 32.0831V27.3246H34.5903C34.9175 27.3246 35.1827 27.0594 35.1827 26.7322V23.4903C35.1827 23.1631 34.9175 22.8978 34.5903 22.8978H32.6659V20.0199C32.6659 14.4949 28.1709 10 22.6459 10C17.1209 10 12.6262 14.4949 12.6262 20.0198V22.8977H10.7018C10.3746 22.8977 10.1094 23.163 10.1094 23.4902V26.732C10.1094 27.0592 10.3746 27.3245 10.7018 27.3245H11.5617V32.083V40.5803V45.5731H10.7018C10.3746 45.5731 10.1094 45.8384 10.1094 46.1656V49.4076C10.1094 49.7348 10.3746 50 10.7018 50H34.5903C34.9175 50 35.1827 49.7348 35.1827 49.4076V46.1656C35.1827 45.8385 34.9175 45.5732 34.5903 45.5732H33.7304V40.5804V32.0831ZM33.9977 46.758V48.8151H11.2942V46.758H12.1541H33.1378H33.9977ZM15.7715 31.4906H12.7466V27.3246H29.7898C29.6881 27.3632 29.5974 27.4293 29.5295 27.5178C29.1527 28.0102 27.9228 29.6902 27.9228 30.6374C27.9228 30.9415 27.989 31.2301 28.1069 31.4906H18.1799C17.8527 31.4906 17.5875 31.7559 17.5875 32.083C17.5875 32.4102 17.8527 32.6755 18.1799 32.6755H29.6002C29.7297 32.7009 29.8633 32.7145 30 32.7145C30.1367 32.7145 30.2703 32.7009 30.3998 32.6755H32.5453V39.9879H12.7466V32.6755H15.7715C16.0987 32.6755 16.3639 32.4102 16.3639 32.083C16.3639 31.7559 16.0988 31.4906 15.7715 31.4906ZM32.5453 31.4906H31.893C32.0109 31.2301 32.0771 30.9415 32.0771 30.6374C32.0771 29.6902 30.8473 28.0102 30.4704 27.5178C30.4025 27.4292 30.3119 27.3632 30.2101 27.3246H32.5453V31.4906ZM30.8923 30.6374C30.8923 31.0388 30.6257 31.379 30.2605 31.4906H29.7396C29.3744 31.3789 29.1078 31.0387 29.1078 30.6374C29.1078 30.3564 29.5153 29.6127 30.0001 28.8941C30.4847 29.6127 30.8923 30.3564 30.8923 30.6374ZM32.5454 41.1729V45.5732H12.7466V41.1729H32.5454ZM33.1379 26.1396H12.1542H11.2942V24.0827H15.0187C15.3459 24.0827 15.6111 23.8174 15.6111 23.4902C15.6111 23.163 15.3459 22.8978 15.0187 22.8978H13.8111V20.0199C13.8111 15.1483 17.7745 11.185 22.646 11.185C27.5177 11.185 31.4809 15.1484 31.4809 20.0199V22.8978H17.4849C17.1577 22.8978 16.8925 23.163 16.8925 23.4902C16.8925 23.8174 17.1577 24.0827 17.4849 24.0827H33.9979V26.1397L33.1379 26.1396Z" fill="black"/>
</g>
<defs>
<clipPath id="clip0_2006_5193">
<rect width="40" height="40" fill="white" transform="translate(10 10)"/>
</clipPath>
</defs>
</svg>
