<svg width="16" height="18" viewBox="0 0 16 18" fill="none" xmlns="http://www.w3.org/2000/svg">
<path d="M9.375 11.6367H0.503906V9.30469H9.31641C10.1055 9.30469 10.7422 9.18359 11.2266 8.94141C11.7109 8.69141 12.0664 8.34375 12.293 7.89844C12.5195 7.45312 12.6328 6.93359 12.6328 6.33984C12.6328 5.80859 12.5195 5.3125 12.293 4.85156C12.0664 4.39063 11.7148 4.01563 11.2383 3.72656C10.7617 3.42969 10.1406 3.28125 9.375 3.28125H5.83594V18H2.89453V0.9375H9.375C10.6875 0.9375 11.8047 1.16797 12.7266 1.62891C13.6484 2.08984 14.3555 2.72656 14.8477 3.53906C15.3398 4.34375 15.5859 5.26953 15.5859 6.31641C15.5859 7.43359 15.3359 8.39062 14.8359 9.1875C14.3438 9.97656 13.6328 10.582 12.7031 11.0039C11.7812 11.4258 10.6719 11.6367 9.375 11.6367ZM9.65625 12.8906V15.2227H0.503906V12.8906H9.65625Z" fill="#565656"/>
</svg>
