<svg width="26" height="18" viewBox="0 0 26 18" fill="none" xmlns="http://www.w3.org/2000/svg">
<path d="M7.98828 14.5781L11.7617 5.32031H14.2109L8.94922 18H7.02734L1.77734 5.32031H4.22656L7.98828 14.5781ZM3.5 5.32031V18H0.675781V5.32031H3.5ZM12.4766 18V5.32031H15.3125V18H12.4766ZM25.0859 8.48438V10.1836H17.9492V8.75391L21.3125 5.64844C21.6328 5.35937 21.8867 5.09375 22.0742 4.85156C22.2695 4.60156 22.4102 4.375 22.4961 4.17188C22.5898 3.96875 22.6367 3.79688 22.6367 3.65625C22.6367 3.32031 22.5273 3.04688 22.3086 2.83594C22.0898 2.61719 21.7734 2.50781 21.3594 2.50781C20.8594 2.50781 20.4844 2.64844 20.2344 2.92969C19.9922 3.20312 19.8711 3.53906 19.8711 3.9375H17.7383C17.7383 3.36719 17.8789 2.84375 18.1602 2.36719C18.4492 1.89062 18.8555 1.51172 19.3789 1.23047C19.9102 0.949219 20.543 0.808594 21.2773 0.808594C22.0195 0.808594 22.6484 0.921875 23.1641 1.14844C23.6875 1.375 24.0859 1.69922 24.3594 2.12109C24.6406 2.54297 24.7812 3.05078 24.7812 3.64453C24.7812 4.07422 24.6875 4.47266 24.5 4.83984C24.3125 5.19922 24.0391 5.55859 23.6797 5.91797C23.3281 6.27734 22.8906 6.67188 22.3672 7.10156L20.7148 8.48438H25.0859Z" fill="#565656"/>
</svg>
